<?xml version="1.0" standalone="no"?>
<!DOCTYPE svg PUBLIC "-//W3C//DTD SVG 1.1//EN" "http://www.w3.org/Graphics/SVG/1.1/DTD/svg11.dtd" >
<svg xmlns="http://www.w3.org/2000/svg">
<metadata>Generated by IcoMoon</metadata>
<defs>
<font id="icomoon" horiz-adv-x="1024">
<font-face units-per-em="1024" ascent="960" descent="-64" />
<missing-glyph horiz-adv-x="1024" />
<glyph unicode="&#x20;" horiz-adv-x="512" d="" />
<glyph unicode="&#xe900;" glyph-name="conference-desk" d="M767.549 889.566h-510.495l-255.248-441.867 255.248-441.867h510.495l255.248 441.867-255.248 441.867zM703.737 817.326l-195.048-193.844-93.31 94.514 288.357 99.33zM399.125 734.852l-110.166 110.768h430.429l-320.263-110.768zM493.037 607.831l-145.082-144.48-167.958 172.774 212.506 73.444 100.534-101.738zM508.689 592.781l145.684-146.888-144.48-147.49-146.286 149.898 145.082 144.48zM494.241 282.149l-18.060-18.662-296.785 1.204 168.56 167.958 146.286-150.5zM509.291 267.099l3.010-3.612h-6.622l3.612 3.612zM533.973 241.815l186.62-192.038h-423.205l187.824 192.038h48.762zM564.073 241.815l208.292-1.204-34.916-176.988-173.376 178.192zM543.003 263.487l-18.662 19.264 144.48 148.092 116.788-117.992-9.632-49.364h-232.974zM684.473 445.893l160.132 163.744-53.578-272.103-106.554 108.36zM804.872 293.587l30.702-31.304h-37.324l6.622 31.304zM809.688 318.871l60.2 305.213 101.738-176.386-106.554-184.814-55.384 55.986zM853.634 652.981l-0.602-4.214-183.008-187.222-145.082 146.888 225.75 224.546 102.942-179.998zM273.307 829.968l102.34-102.942-202.272-69.832 99.932 172.774zM157.122 628.901l175.784-180.6-178.192-176.988-102.34 176.386 104.748 181.202zM170.968 243.621l284.143-1.204-178.192-182.406-105.952 183.61zM764.539 89.51l29.498 151.102h57.792l-87.29-151.102z" />
<glyph unicode="&#xe901;" glyph-name="share-files" d="M898.004 65.814h-99.269v-99.269c0-16.447-13.333-29.781-29.781-29.781s-29.781 13.333-29.781 29.781v99.269h-99.269c-16.447 0-29.781 13.333-29.781 29.781s13.333 29.781 29.781 29.781h99.269v99.269c0 16.447 13.333 29.781 29.781 29.781s29.781-13.333 29.781-29.781v-99.269h99.269c16.447 0 29.781-13.333 29.781-29.781s-13.333-29.781-29.781-29.781zM768.955 318.95c-16.447 0-29.781 13.333-29.781 29.781v550.944h-324.162c0.002-0.128 0.010-0.254 0.010-0.382v-230.61c0-16.447-13.333-29.781-29.781-29.781h-229.465v-515.054h359.278c16.447 0 29.781-13.333 29.781-29.781s-13.333-29.781-29.781-29.781h-389.059c-16.447 0-29.781 13.333-29.781 29.781v623.869c0 4.651 1.068 9.053 2.969 12.974 0.722 2.263 1.895 4.303 3.553 6.003l207.113 212.248c0.662 0.749 1.36 1.466 2.093 2.145l2.357 2.416c2.794 2.864 6.578 4.386 10.82 4.667 2.261 0.549 4.62 0.847 7.049 0.847h436.784c16.447 0 29.781-13.333 29.781-29.781v-580.725c0-16.447-13.333-29.781-29.781-29.781zM344.781 899.675l-189.004-193.691v-7.52h199.684v200.829c0 0.128 0.008 0.254 0.010 0.382h-10.689z" />
<glyph unicode="&#xe902;" glyph-name="share-screen" d="M853.333 874.667h-682.667c-70.72 0-128-57.28-128-128v-426.667c0-70.72 57.28-128 128-128h298.667v-85.333h-128c-23.564 0-42.667-19.103-42.667-42.667s19.103-42.667 42.667-42.667v0h341.333c23.564 0 42.667 19.103 42.667 42.667s-19.103 42.667-42.667 42.667v0h-128v85.333h298.667c70.72 0 128 57.28 128 128v426.667c0 70.72-57.28 128-128 128zM896 320c0-23.573-19.093-42.667-42.667-42.667h-682.667c-23.573 0-42.667 19.093-42.667 42.667v426.667c0 23.573 19.093 42.667 42.667 42.667h682.667c23.573 0 42.667-19.093 42.667-42.667v-426.667z" />
<glyph unicode="&#xe903;" glyph-name="share-stop" d="M510.408-0.415c-60.29 0-118.798 11.817-173.899 35.123-53.2 22.501-100.971 54.707-141.984 95.72s-73.219 88.784-95.72 141.984c-23.306 55.102-35.123 113.608-35.123 173.899s11.817 118.798 35.123 173.899c22.501 53.201 54.707 100.971 95.72 141.984s88.784 73.219 141.984 95.721c55.102 23.306 113.608 35.123 173.899 35.123s118.798-11.817 173.899-35.123c53.2-22.503 100.971-54.707 141.984-95.721s73.219-88.784 95.72-141.984c23.306-55.101 35.123-113.608 35.123-173.899s-11.817-118.798-35.123-173.899c-22.501-53.2-54.707-100.971-95.72-141.984s-88.784-73.219-141.984-95.72c-55.101-23.306-113.608-35.123-173.899-35.123zM510.408 829.592c-102.378 0-198.628-39.868-271.021-112.261-72.392-72.393-112.261-168.643-112.261-271.021s39.868-198.628 112.261-271.021c72.393-72.393 168.643-112.261 271.021-112.261s198.629 39.868 271.021 112.261c72.393 72.393 112.261 168.643 112.261 271.021s-39.868 198.628-112.261 271.021c-72.392 72.393-168.642 112.261-271.021 112.261zM348.904 606.147h323.008v-319.672h-323.008v319.672z" />
<glyph unicode="&#xe904;" glyph-name="share-popout" d="M804.814 783.62h-431.584v-43.875h431.584v-433.972h43.875v477.847zM175.311 670.601v-558.222h558.222v558.222h-558.222zM684.587 161.367h-460.289v460.289h460.289v-460.289z" />
<glyph unicode="&#xe905;" glyph-name="conference-time" d="M656.179 503.083h-77.056v74.046c0 40.334-34.916 74.046-77.056 74.046-42.742 0-77.056-33.11-77.056-74.046v-147.49c-0.602-41.538 33.712-74.648 76.454-74.648h154.714c42.742 0 77.056 33.11 77.056 74.046 0 39.732-34.916 74.046-77.056 74.046zM511.699 959.398c-282.939 0-511.699-229.362-511.699-511.699s229.362-511.699 511.699-511.699c282.337 0 511.699 229.362 511.699 511.699 0 282.939-228.76 511.699-511.699 511.699zM511.699 62.42c-212.506 0-384.677 172.172-384.677 384.677s172.172 384.677 384.677 384.677 384.677-172.172 384.677-384.677-170.968-384.677-384.677-384.677z" />
<glyph unicode="&#xe906;" glyph-name="tool-whiteboard" d="M1010.756 677.061l-104.146 104.748c-7.826 7.826-18.060 12.040-28.896 12.040-10.234 0-20.468-4.214-28.294-12.040l-294.979-294.979c-7.826-7.826-15.050-19.866-20.468-31.906-5.418-12.642-8.428-25.886-8.428-37.324v-121.604h121.604c11.438 0 24.682 3.010 36.722 8.428 12.642 5.418 24.080 12.040 31.906 20.468l294.979 294.979c7.826 7.826 12.040 18.060 12.040 28.896 0 10.234-3.612 20.468-12.040 28.294zM824.136 680.071l33.11-33.11-223.944-223.342-33.11 33.11 223.944 223.342zM647.149 350.175h-40.334l-27.090 27.090v40.334c0 1.806 0.602 8.428 4.214 16.254 0 0.602 80.066-79.464 80.066-79.464-9.030-3.010-15.050-4.214-16.856-4.214zM685.677 371.245l-33.11 33.11 223.944 223.944 33.11-33.11-223.944-223.944zM928.282 613.851l-85.484 85.484 34.916 34.916 85.484-85.484-34.916-34.916zM1011.358 128.038h-58.394c12.040 13.846 19.866 31.304 19.866 51.17v307.019h-25.886v-307.019c0-13.846-5.418-26.488-15.050-36.12s-22.876-15.050-36.12-15.050h-562.869c6.622 0 13.244 2.408 18.060 7.224s7.224 11.438 7.224 18.060c0 7.224-6.020 12.642-12.642 12.642h-179.396c-7.224 0-12.642-6.020-12.642-12.642s2.408-13.244 7.224-18.060c4.816-4.816 11.438-7.224 18.060-7.224h-51.17c-13.846 0-26.488 5.418-36.12 15.050s-15.050 22.876-15.050 36.12v537.585c0 28.294 22.876 51.17 51.17 51.17h537.585v25.886h-537.585c-42.14 0-77.056-34.314-77.056-77.056v-537.585c0-19.866 7.826-37.324 19.866-51.17h-58.394c-7.224 0-12.642-6.020-12.642-12.642 0-7.224 6.020-12.642 12.642-12.642h999.318c7.224 0 12.642 6.020 12.642 12.642s-6.020 12.642-12.642 12.642zM205.884 489.839c-1.806-4.816 0.602-9.632 4.816-11.438 1.204-0.602 1.806-0.602 3.010-0.602 3.612 0 6.622 2.408 7.826 5.418l4.816 13.846c1.806 4.816-0.602 9.632-4.816 11.438s-9.030-0.602-10.836-4.816l-4.816-13.846zM237.188 527.163l48.16 151.102c1.806 4.816-0.602 9.632-4.816 11.438s-9.030-0.602-10.836-4.816l-48.16-151.704c-1.806-4.816 0.602-9.632 4.816-11.438 1.204-0.602 1.806-0.602 3.010-0.602 3.612 0.602 6.622 3.010 7.826 6.020zM269.695 467.565l37.324 121.604c1.806 4.816-0.602 9.632-4.816 11.438s-9.030-0.602-10.234-4.816l-37.324-121.604c-1.806-4.214 0.602-9.632 4.816-11.438 1.204-0.602 1.806-0.602 3.010-0.602 3.010 0 6.622 1.806 7.224 5.418zM317.253 617.463c1.806 4.816-0.602 9.632-4.816 11.438s-9.030-0.602-10.234-4.816l-2.408-6.020c-1.806-4.214 0-9.632 4.816-11.438 1.204-0.602 1.806-0.602 3.010-0.602 3.612 0 6.622 2.408 7.826 5.418l1.806 6.020z" />
<glyph unicode="&#xe907;" glyph-name="tool-line" d="M905.406 89.51l-835.574 667.617c-14.448 12.040-16.856 33.11-5.418 48.16v0c12.040 14.448 33.11 16.856 48.16 5.418l835.574-667.617c14.448-12.040 16.856-33.11 5.418-48.16v0c-12.040-15.050-33.712-17.458-48.16-5.418z" />
<glyph unicode="&#xe908;" glyph-name="tool-triangle" d="M512.301 754.718l393.707-682.065h-788.016l394.309 682.065zM512.301 891.372l-511.699-887.346h1024l-512.301 887.346z" />
<glyph unicode="&#xe909;" glyph-name="tool-rect" d="M955.974 806.49v-716.981h-887.948v716.981h887.948zM1024 874.516h-1024v-853.032h1024v853.032z" />
<glyph unicode="&#xe90a;" glyph-name="conference-add" d="M874.704 810.704c-200.466 199.864-524.943 199.864-724.807 0-199.864-200.466-200.466-524.943 0-724.807s524.943-199.864 724.807 0c199.864 199.864 199.864 524.341 0 724.807zM813.902 388.101c-15.050-15.652-36.722-25.284-60.2-25.284h-155.918v-155.918c0-23.478-9.632-44.548-25.284-60.2-15.050-15.652-36.722-25.284-60.2-25.284-47.558 0-85.484 38.528-85.484 85.484v155.918h-155.918c-47.558 0-85.484 38.528-85.484 85.484s38.528 85.484 85.484 85.484h155.918v155.918c0 46.956 38.528 85.484 85.484 85.484s85.484-38.528 85.484-85.484v-155.918h155.918c47.558 0 85.484-38.528 85.484-85.484 0-23.478-9.632-44.548-25.284-60.2z" />
<glyph unicode="&#xe90b;" glyph-name="arrow-left" d="M797.046 786.022l-350.965-338.323 350.965-338.323c38.528-40.334 38.528-105.35 0-145.082-19.264-19.866-43.946-30.1-69.23-30.1s-49.966 10.234-69.23 30.1l-460.529 483.405 460.529 483.405c38.528 40.334 99.932 40.334 138.46 0 37.926-40.334 37.926-104.748 0-145.082z" />
<glyph unicode="&#xe90c;" glyph-name="arrow-right" d="M226.954 109.376l350.965 338.323-350.965 338.323c-38.528 40.334-38.528 105.35 0 145.082 19.264 19.866 43.946 30.1 69.23 30.1s49.966-10.234 69.23-30.1l460.529-483.405-460.529-483.405c-38.528-40.334-99.932-40.334-138.46 0-37.926 40.334-37.926 104.748 0 145.082z" />
<glyph unicode="&#xe90d;" glyph-name="arrow-up" d="M850.022 162.954l-338.323 350.965-338.323-350.965c-40.334-38.528-105.35-38.528-145.082 0-19.866 19.264-30.1 43.946-30.1 69.23s10.234 49.966 30.1 69.23l483.405 460.529 483.405-460.529c40.334-38.528 40.334-99.932 0-138.46-39.732-38.528-104.748-38.528-145.082 0z" />
<glyph unicode="&#xe90e;" glyph-name="arrow-down" d="M173.978 725.22l338.323-350.965 338.323 350.965c40.334 38.528 105.35 38.528 145.082 0 19.866-19.264 30.1-43.946 30.1-69.23s-10.234-49.966-30.1-69.23l-483.405-460.529-483.405 460.529c-40.334 38.528-40.334 99.932 0 138.46s104.748 38.528 145.082 0z" />
<glyph unicode="&#xe90f;" glyph-name="mdi-volume-down" d="M866.878-20.054l-827.146 827.146c-6.020 6.020-6.020 15.652 0 21.672l43.946 43.946c6.020 6.020 15.652 6.020 21.672 0l827.146-827.146c6.020-6.020 6.020-15.652 0-21.672l-43.946-43.946c-6.020-6.020-15.652-6.020-21.672 0zM552.635 543.417v325.079c0 50.568-32.508 66.22-72.842 34.916l-161.938-125.818 234.78-234.178zM185.416 675.255l-47.558-37.324h-137.858v-368.423h138.46l341.333-265.481c40.334-31.304 72.24-15.652 72.24 34.916v269.093l-366.617 367.219zM778.384 82.286c0.602-9.030 3.010-17.458 9.632-24.682 7.224-8.428 17.458-12.642 28.294-13.244l-37.926 37.926zM943.934 456.127c0-84.28-24.080-166.754-66.822-237.188l57.19-57.19c57.19 86.688 89.096 189.028 89.096 294.979 0 155.316-66.822 302.805-184.212 405.145-16.254 14.448-41.538 12.642-55.986-3.612s-12.642-41.538 3.612-55.986c99.932-87.892 157.122-213.71 157.122-346.149zM737.449 456.729c0-28.896-5.418-56.588-14.448-83.076l60.802-60.802c21.672 44.548 33.11 93.31 33.11 143.878 0 87.892-34.314 170.366-95.718 232.372-15.652 15.652-40.334 15.652-55.986 0s-15.652-40.936 0-55.986c46.354-46.956 72.24-110.166 72.24-176.386z" />
<glyph unicode="&#xe910;" glyph-name="tool-format" d="M65.016 895.586c0 35.518 28.896 63.812 63.812 63.812h638.119c16.856 0 33.11-6.622 45.15-18.662s18.662-28.294 18.662-45.15v-191.436c0-35.518-28.896-63.812-63.812-63.812h-638.119c-16.856 0-33.11 6.622-45.15 18.662s-18.662 28.294-18.662 45.15v191.436zM831.36 767.962h127.624v63.812h-127.624v-63.812zM447.887 448.903h446.683v63.812h-446.683v-63.812zM895.172 448.903h63.812v319.059h-63.812v-319.059zM447.887 385.091h63.812v63.812h-63.812v-63.812zM384.075 385.091h191.436v-350.965c0-52.976-42.742-95.718-95.718-95.718s-95.718 42.742-95.718 95.718v350.965z" />
<glyph unicode="&#xe911;" glyph-name="tool-select" d="M90.902 872.108l813.902-270.297-305.815-164.948 73.444-73.444 242.004-238.392-73.444-73.444-238.392 242.004-72.842 72.842-52.374-94.514-112.574-217.322-273.909 817.514zM55.986 960c-7.224 0-10.234 0-17.458-3.612-28.294-7.224-42.14-38.528-31.304-66.822l305.213-912.63c3.612-13.846 13.846-24.682 24.682-31.304 7.224-3.612 17.458-7.224 24.682-7.224 17.458 0 34.916 10.234 45.752 28.294l140.266 266.685 259.461-259.461c10.234-10.234 24.682-13.846 34.916-13.846 13.846 0 28.294 3.612 34.916 13.846l108.962 108.962c21.070 21.070 21.070 52.374 0 73.444l-256.451 256.451 266.685 140.266c10.234 7.224 21.070 17.458 24.682 28.294 10.234 28.294-7.224 55.986-31.304 63.21l-919.854 311.835c-3.612 3.612-10.234 3.612-13.846 3.612z" />
<glyph unicode="&#xe912;" glyph-name="tool-draw" d="M384.677 365.225c0.602-46.354-37.324-84.882-83.678-84.882-46.956-0.602-84.882 37.324-84.882 83.678-0.602 46.354 37.324 84.882 83.678 84.882s84.882-37.324 84.882-83.678zM343.741 533.183c-46.354-0.602-84.882 37.324-84.882 83.678-0.602 46.354 37.324 84.882 83.678 84.882 46.354 0.602 84.882-36.722 84.882-83.678 0-46.354-37.324-84.28-83.678-84.882zM680.259 702.947c0-46.354-37.324-84.882-83.678-84.882-46.956-0.602-84.882 37.324-84.882 83.678-0.602 46.956 37.324 84.882 83.678 84.882s84.882-37.324 84.882-83.678zM173.978 33.524c193.844-16.254 124.012 189.63 303.407 191.436l77.658-65.016c19.264-232.974-266.685-285.347-381.065-126.42zM767.549 333.921c60.2 94.514 246.82 411.767 246.82 411.767 15.050 26.488-18.060 53.578-40.936 34.314 0 0-277.521-241.402-359.393-317.855-64.414-60.2-65.016-87.892-86.086-187.824l71.036-58.996c93.912 38.528 121.002 43.946 168.56 118.594zM234.78 131.048c-87.892 77.056-144.48 189.028-145.082 314.243-1.806 232.372 186.018 423.205 418.991 425.613 161.938 0.602 273.307-80.668 274.511-145.684 25.886 22.274 49.364 43.344 70.434 61.404-42.742 93.912-176.386 170.968-344.945 168.56-279.929-2.408-504.475-230.566-502.669-510.495 1.204-122.808 45.752-235.382 119.196-322.069 39.13-21.070 88.494-13.846 109.564 8.428zM774.772 211.715c44.548-83.076-57.19-142.072-149.898-168.56-12.642-38.528-33.712-72.842-57.792-97.524 222.138 24.682 382.269 181.804 264.277 332.905-18.662-28.896-37.324-50.568-56.588-66.822z" />
<glyph unicode="&#xe913;" glyph-name="tool-annotate" d="M567.083 297.801h36.722c10.234 0 18.060-8.428 18.060-18.060v-36.722c0-10.234-8.428-18.060-18.060-18.060h-36.722c-10.234 0-18.060 8.428-18.060 18.060v36.722c-0.602 10.234 7.826 18.060 18.060 18.060zM713.369 297.801h36.722c10.234 0 18.060-8.428 18.060-18.060v-36.722c0-10.234-8.428-18.060-18.060-18.060h-36.722c-10.234 0-18.060 8.428-18.060 18.060v36.722c-0.602 10.234 7.826 18.060 18.060 18.060zM859.654 297.801h36.722c10.234 0 18.060-8.428 18.060-18.060v-36.722c0-10.234-8.428-18.060-18.060-18.060h-36.722c-10.234 0-18.060 8.428-18.060 18.060v36.722c-0.602 10.234 7.826 18.060 18.060 18.060zM420.797 297.801h36.722c10.234 0 18.060-8.428 18.060-18.060v-36.722c0-10.234-8.428-18.060-18.060-18.060h-36.722c-10.234 0-18.060 8.428-18.060 18.060v36.722c-0.602 10.234 7.826 18.060 18.060 18.060zM402.135 389.305v0c0-10.234 8.428-18.060 18.060-18.060h549.023c10.234 0 18.060-8.428 18.060-18.060v-183.008c0-10.234-8.428-18.060-18.060-18.060h-951.158c-10.234 0-18.060-8.428-18.060-18.060s8.428-18.060 18.060-18.060h987.278c10.234 0 18.060 8.428 18.060 18.060v255.248c0 10.234-8.428 18.060-18.060 18.060h-584.541c-10.234 0-18.662-7.826-18.662-18.060zM570.695 664.419l-104.146 104.748c-7.826 7.826-18.060 12.040-28.896 12.040-10.234 0-20.468-4.214-28.294-12.040l-294.979-294.979c-7.826-7.826-15.050-19.866-20.468-31.906-5.418-12.642-8.428-25.886-8.428-37.324v-121.604h121.604c11.438 0 24.682 3.010 36.722 8.428 12.642 5.418 24.080 12.040 31.906 20.468l294.979 294.979c7.826 7.826 12.040 18.060 12.040 28.896 0 10.234-3.612 20.468-12.040 28.294zM384.075 667.429l33.11-33.11-223.944-223.342-33.11 33.11 223.944 223.342zM207.088 337.533h-40.334l-27.090 27.090v40.334c0 1.806 0.602 8.428 4.214 16.254 0 0.602 80.066-79.464 80.066-79.464-9.030-3.010-15.050-4.214-16.856-4.214zM245.616 358.603l-33.11 33.11 223.944 223.944 33.11-33.11-223.944-223.944zM488.221 601.209l-85.484 85.484 34.916 34.916 85.484-85.484-34.916-34.916z" />
<glyph unicode="&#xe914;" glyph-name="tool-save" d="M856.042 960h-688.085c-92.708 0-167.356-75.25-167.356-167.958v-688.085c0-92.708 75.25-167.958 167.958-167.958h687.483c92.708 0 167.958 75.25 167.958 167.958v688.085c-0.602 92.708-75.25 167.958-167.958 167.958zM225.75 886.556h572.501v-255.85c0-34.916-35.518-62.608-80.066-62.608h-412.971c-43.946 0-80.066 28.294-80.066 62.608v255.85zM950.556 104.56c0-52.374-42.14-94.514-94.514-94.514h-688.085c-52.374 0-94.514 42.14-94.514 94.514v687.483c0 46.956 34.314 85.484 78.862 92.708v-254.646c0-75.25 68.628-136.052 152.908-136.052h412.971c84.28 0 152.908 60.802 152.908 136.052v255.248c44.548-7.826 78.862-46.354 78.862-92.708v-688.085zM681.463 612.647c20.468 0 36.12 16.254 36.12 36.12v126.42c0 20.468-16.254 36.12-36.12 36.12-20.468 0-36.722-16.254-36.722-36.12v-126.42c0.602-19.866 16.856-36.12 36.722-36.12z" />
<glyph unicode="&#xe915;" glyph-name="tool-delete" d="M930.69 773.982h-46.354v-744.673c0-51.17-41.538-93.31-93.31-93.31h-558.053c-51.17 0-93.31 41.538-93.31 93.31v744.673h-46.354c-25.886 0-46.354 21.070-46.354 46.354 0 25.886 21.070 46.354 46.354 46.354h279.327c0 51.772 41.538 93.31 92.708 93.31h93.31c51.17 0 93.31-41.538 93.31-93.31h279.327c25.886 0 46.354-21.070 46.354-46.354 0-25.886-21.070-46.354-46.956-46.354zM232.974 29.31h558.655v744.673h-558.655v-744.673zM418.991 680.673c25.886 0 46.354-21.070 46.354-46.354v-465.345c0-25.886-21.070-46.354-46.354-46.354-25.886 0-46.354 21.070-46.354 46.354v465.345c0 25.886 20.468 46.354 46.354 46.354zM605.009 680.673c25.886 0 46.354-21.070 46.354-46.354v-465.345c0-25.886-21.070-46.354-46.354-46.354-25.886 0-46.354 21.070-46.354 46.354v465.345c0 25.886 20.468 46.354 46.354 46.354z" />
<glyph unicode="&#xe916;" glyph-name="tool-redo" d="M568.889 348.971v-199.262l317.253 313.039-317.253 313.039v-198.66c0 0-21.672 0-50.568-3.010-194.446-22.274-348.557-163.142-391.901-346.149 120.4 98.126 258.859 117.39 384.677 120.4 15.652 0 57.792 0.602 57.792 0.602zM57.19 7.638c-5.418 0-10.836 0.602-16.254 2.408-24.080 7.224-40.334 29.498-40.334 54.782v56.588c-0.602 273.307 192.038 504.475 454.509 557.451v96.922c0 30.1 12.040 58.996 33.11 80.668 42.742 43.344 117.992 42.742 160.734 0l357.587-352.771c10.836-10.836 16.856-25.284 16.856-40.334s-6.020-30.1-16.856-40.334l-357.587-353.975c-42.14-42.14-117.39-42.742-160.734 0-21.672 21.672-33.11 49.966-33.11 80.668v81.872c-142.072-11.438-257.053-55.986-350.363-198.058-10.836-16.254-28.896-25.886-47.558-25.886z" />
<glyph unicode="&#xe917;" glyph-name="tool-undo" d="M513.505 348.369c125.818-3.010 263.675-22.274 384.677-120.4-43.946 183.008-198.058 324.477-391.901 345.547-28.896 3.010-50.568 3.010-50.568 3.010v198.66l-317.855-312.437 317.253-313.039v199.262c0 0 42.14-0.602 58.394-0.602zM919.252 33.524c-93.31 142.072-208.894 186.62-350.363 198.058v-81.872c0-30.1-12.040-58.996-33.11-80.668-42.742-42.742-117.992-42.742-160.734 0l-358.189 353.373c-10.836 10.836-16.856 25.284-16.856 40.334s6.020 30.1 16.856 40.334l357.587 352.771c42.742 42.742 117.992 42.742 160.734 0 21.672-21.672 33.11-49.966 33.11-80.668v-96.922c262.471-52.976 455.111-284.143 455.111-557.451v-56.588c0-25.284-16.254-47.558-40.334-54.782-5.418-1.806-10.836-2.408-16.254-2.408-18.662 0.602-36.722 10.234-47.558 26.488z" />
<glyph unicode="&#xe918;" glyph-name="tool-rubber" d="M993.298 587.363l-314.845 314.845c-18.662 18.662-45.15 30.702-74.046 30.702s-55.384-11.438-74.046-30.702l-499.659-499.659c-18.662-19.264-30.702-45.15-30.702-74.046s11.438-55.384 30.702-74.046l222.138-222.138c42.742-42.742 101.738-69.23 166.754-69.23s124.012 26.488 166.754 69.23l406.951 406.951c18.662 18.662 30.702 45.15 30.702 74.046s-12.040 55.384-30.702 74.046v0zM307.621 76.868l-126.42 124.012-89.698 89.698c-8.428 8.428-13.244 19.866-13.244 32.508s5.418 24.080 13.244 32.508l81.872 80.066 348.557-346.149c-53.578-54.782-160.132-66.822-214.312-12.642v0zM913.834 475.993l-248.024-250.432-77.658-77.658-351.567 349.761 325.681 328.089c8.428 8.428 19.866 13.846 33.11 13.846 12.642 0 24.682-5.418 33.11-13.846l285.949-283.541c8.428-8.428 13.846-19.866 13.846-33.11-0.602-13.244-6.020-24.682-14.448-33.11v0z" />
<glyph unicode="&#xe919;" glyph-name="tool-text" d="M1022.796 72.052c0 37.926-30.1 68.628-68.026 69.23v614.039c37.926 0.602 68.026 31.304 68.026 69.23v66.22c0 37.926-30.702 69.23-69.23 69.23h-65.016c-37.324 0-68.026-30.1-69.23-66.822h-615.243c-1.204 37.324-31.906 66.822-69.23 66.822h-65.016c-37.926 0-68.628-30.702-68.628-69.23v-66.822c0-37.324 30.1-68.026 66.822-69.23v-614.039c-37.324-1.204-66.822-31.304-66.822-69.23v-66.822c0-37.926 30.702-69.23 69.23-69.23h65.016c37.926 0 69.23 30.702 69.23 69.23v1.204h615.845v-1.204c0-37.926 30.702-69.23 69.23-69.23h65.016c37.926 0 69.23 30.702 69.23 69.23l-1.204 67.424zM886.744 141.282c-36.722-1.204-65.618-30.702-66.822-66.822h-615.845c-1.204 36.722-30.702 66.22-68.026 66.822v614.039c37.926 0.602 68.026 31.304 68.026 69.23v1.204h615.845v-1.204c0-37.324 30.1-68.026 66.822-69.23v-614.039zM750.693 619.269h-136.654v-341.333h68.026v-68.026h-341.333v68.026h69.23v341.333h-136.654v-68.026h-68.026v136.052h613.437v-136.052h-68.026v68.026z" />
<glyph unicode="&#xe91a;" glyph-name="tool-laser-pen" d="M630.293 584.353c-15.050 0-27.090 12.040-27.090 27.090 0 74.046-60.2 134.246-134.246 134.246-15.050 0-27.090 12.040-27.090 27.090s12.040 27.090 27.090 27.090c74.046 0 134.246 60.2 134.246 134.246 0 15.050 12.040 27.090 27.090 27.090s27.090-12.040 27.090-27.090c0-74.046 60.2-134.246 134.246-134.246 15.050 0 27.090-12.040 27.090-27.090s-12.040-27.090-27.090-27.090c-74.046 0-134.246-60.2-134.246-134.246 0-15.050-12.040-27.090-27.090-27.090zM565.879 772.176c26.488-15.652 48.16-37.926 64.414-64.414 15.652 26.488 37.926 48.16 64.414 64.414-26.488 15.652-48.16 37.926-64.414 64.414-15.652-26.488-37.926-48.16-64.414-64.414zM93.912 423.619c-15.050 0-27.090 12.040-27.090 27.090s-12.040 27.090-27.090 27.090c-15.050 0-27.090 12.040-27.090 27.090s12.040 27.090 27.090 27.090c15.050 0 27.090 12.040 27.090 27.090s12.040 27.090 27.090 27.090c15.050 0 27.090-12.040 27.090-27.090s12.040-27.090 27.090-27.090c15.050 0 27.090-12.040 27.090-27.090s-12.040-27.090-27.090-27.090c-15.050 0-27.090-12.040-27.090-27.090s-12.040-27.090-27.090-27.090zM987.278 105.162l-568.287 567.685c-15.050 15.050-35.518 23.478-57.19 23.478s-41.538-8.428-57.19-23.478l-31.304-31.304c-15.050-15.050-23.478-35.518-23.478-57.19s8.428-41.538 23.478-57.19l567.685-567.685c15.050-15.050 35.518-23.478 57.19-23.478s41.538 8.428 57.19 23.478l31.304 31.304c15.050 15.050 23.478 35.518 23.478 57.19s-7.826 41.538-22.876 57.19zM311.835 603.617l31.304 31.304c4.816 4.816 12.040 7.826 19.264 7.826s13.846-3.010 19.264-7.826l77.056-77.056-69.832-69.23-77.056 77.056c-10.234 10.234-10.234 27.090 0 37.926v0zM948.75 29.31l-31.304-31.304c-4.816-4.816-12.040-7.826-18.662-7.826-7.224 0-13.846 3.010-18.662 7.826l-453.305 452.101 69.23 69.23 452.703-452.703c10.836-10.234 10.836-27.090 0-37.324v0zM201.068 692.111c-15.050 0-27.090 12.040-27.090 27.090 0 44.548-36.12 80.668-80.668 80.668-15.050 0-27.090 12.040-27.090 27.090s12.040 27.090 27.090 27.090c44.548 0 80.668 36.12 80.668 80.668 0.602 13.244 12.642 25.284 27.090 25.284 15.050 0 27.090-12.040 27.090-27.090 0-44.548 36.12-80.668 80.668-80.668 15.050 0 27.090-12.040 27.090-27.090s-12.040-27.090-27.090-27.090c-44.548 0-80.668-36.12-80.668-80.668 0-13.846-12.040-25.284-27.090-25.284zM174.58 825.754c10.234-7.826 19.264-16.856 27.090-27.090 7.826 10.234 16.856 19.264 27.090 27.090-10.234 7.826-19.264 16.856-27.090 27.090-7.826-10.234-17.458-19.264-27.090-27.090zM201.068 155.128c-15.050 0-27.090 12.040-27.090 27.090 0 44.548-36.12 80.668-80.668 80.668-15.050 0-27.090 12.040-27.090 27.090s12.040 27.090 27.090 27.090c44.548 0 80.668 36.12 80.668 80.668 0 15.050 12.040 27.090 27.090 27.090s27.090-12.040 27.090-27.090c0-44.548 36.12-80.668 80.668-80.668 15.050 0 27.090-12.040 27.090-27.090s-12.040-27.090-27.090-27.090c-44.548 0-80.668-36.12-80.668-80.668 0-15.050-12.040-27.090-27.090-27.090zM174.58 289.373c10.234-7.826 19.264-16.856 27.090-27.090 7.826 10.234 16.856 19.264 27.090 27.090-10.234 7.826-19.264 16.856-27.090 27.090-7.826-10.234-17.458-19.264-27.090-27.090z" />
<glyph unicode="&#xe91b;" glyph-name="mdi-moff" d="M840.992 349.573c10.234 33.11 16.254 68.026 16.254 104.146 0 18.662-15.050 33.712-33.712 33.712s-33.712-15.050-33.712-33.712c0-16.254-1.806-32.508-4.214-48.16l55.384-55.986zM688.687 3.424h-146.286v102.942c73.444 7.224 139.062 36.722 191.436 81.872l-47.558 47.558c-48.762-39.732-110.166-63.21-177.59-63.21-155.316 0-281.133 125.818-281.133 281.133 0 18.662-15.050 33.712-33.712 33.712s-33.712-15.050-33.712-33.712c0-179.396 136.654-329.293 314.845-346.751v-102.942h-146.286c-18.662 0-33.712-15.050-33.712-33.712s15.050-33.712 33.712-33.712h359.995c18.662 0 33.712 15.050 33.712 33.712 0 18.060-15.050 33.11-33.712 33.11zM722.399 468.167v278.123c0 117.992-95.718 213.71-213.71 213.71-75.25 0-141.47-39.13-179.396-98.126l393.105-393.707zM294.979 627.697v-173.978c0-117.992 95.718-213.71 213.71-213.71 48.762 0 93.31 16.856 129.43 43.946l-343.139 343.741zM849.42 70.246l-747.683 747.683c-20.468 20.468-20.468 52.976 0 73.444v0c20.468 20.468 52.976 20.468 73.444 0l747.683-747.683c20.468-20.468 20.468-52.976 0-73.444v0c-20.468-20.468-53.578-20.468-73.444 0z" />
<glyph unicode="&#xe91c;" glyph-name="mdi-videocam-off" d="M1013.766 692.111c-7.826 2.408-16.254 2.408-21.672-2.408l-179.998-139.664c-5.418-5.418-7.826-10.836-7.826-16.254v-223.342c0-5.418 2.408-13.244 7.826-16.254l179.998-139.664c2.408-2.408 7.826-5.418 13.244-5.418 2.408 0 5.418 0 10.836 2.408 7.826 2.408 10.836 10.836 10.836 18.662v502.669c0.602 8.428-4.816 16.254-13.244 19.264v0zM55.384 729.434c-24.682-10.234-51.772-31.906-51.772-80.668v-448.489c0-89.096 91.504-89.096 91.504-89.096h545.411c0 0 12.642 0 28.294 4.816l-613.437 613.437zM731.429 302.015v344.343c0 91.504-91.504 91.504-91.504 91.504h-343.741l435.245-435.847zM717.583 67.838l-693.503 692.901c-18.662 18.662-18.662 49.364 0 68.026v0c18.662 18.662 49.364 18.662 68.026 0l692.901-693.503c18.662-18.662 18.662-49.364 0-68.026v0c-18.662-18.060-48.762-18.060-67.424 0.602z" />
<glyph unicode="&#xe91d;" glyph-name="conference-unCollected" d="M777.782-42.328c-12.040 0-24.682 3.010-37.926 10.234l-206.486 108.36c-4.816 3.010-12.040 4.816-20.468 4.816-7.224 0-15.050-1.806-20.468-4.214l-205.884-109.564c-12.040-7.224-24.682-10.234-39.13-10.234-24.682 0-48.16 11.438-64.414 29.498-16.254 18.662-22.274 42.742-18.662 67.424l39.732 229.362c1.806 14.448-3.010 28.896-13.244 39.13l-164.948 160.734c-23.478 22.876-31.906 55.384-21.672 86.086s35.518 52.374 67.424 57.19l229.362 33.712c14.448 1.806 27.692 11.438 33.712 23.478l102.34 208.894c14.448 28.896 43.344 46.354 74.648 46.354 31.906 0 60.2-17.458 74.648-45.752l102.34-208.894c7.224-13.244 19.264-21.672 33.712-23.478l229.362-33.712c31.906-4.816 57.19-26.488 67.424-55.986 10.234-30.702 1.806-63.21-20.468-86.086l-164.948-161.938c-11.438-10.234-15.050-24.682-13.244-39.13l39.13-228.158c4.214-24.682-1.806-49.364-18.662-67.424-15.050-19.866-38.528-30.702-63.21-30.702v0zM764.539 19.678c4.816-1.806 9.030-3.010 12.040-3.010 7.224 0 14.448 3.010 19.264 9.030s6.020 14.448 4.816 19.264l-39.13 228.158c-6.020 32.508 4.816 68.628 29.498 90.902l164.948 162.54c6.020 6.020 8.428 15.050 6.020 25.284-3.010 9.030-10.234 15.050-20.468 16.254l-229.362 33.712c-33.712 4.816-63.21 25.284-77.658 55.986l-102.34 207.69c-4.214 9.030-12.040 13.244-21.672 13.244-9.030 0-17.458-4.816-22.274-14.448l-102.34-206.486c-14.448-29.498-43.946-51.17-77.658-55.986l-229.362-33.712c-9.030-1.806-16.254-8.428-19.264-16.254v-1.204c-3.010-9.030-1.204-17.458 6.020-24.682l165.55-162.54c24.682-23.478 34.916-57.19 29.498-90.902l-39.13-228.158c-1.204-4.816-1.204-12.040 4.816-18.662 4.816-6.020 12.040-9.030 19.264-9.030 4.816 0 8.428 1.204 11.438 1.806l206.486 108.36c13.244 8.428 29.498 12.040 46.956 12.040 15.050 0 31.906-4.214 46.956-12.040l207.088-107.156z" />
<glyph unicode="&#xe91e;" glyph-name="conference-collected" d="M777.782-42.328c-12.040 0-24.682 3.010-37.926 10.234l-206.486 108.36c-4.816 3.010-12.040 4.816-20.468 4.816-7.224 0-15.050-1.806-20.468-4.214l-205.884-109.564c-12.040-7.224-24.682-10.234-39.13-10.234-24.682 0-48.16 11.438-64.414 29.498-16.254 18.662-22.274 42.742-18.662 67.424l39.732 229.362c1.806 14.448-3.010 28.896-13.244 39.13l-164.948 160.734c-23.478 22.876-31.906 55.384-21.672 86.086s35.518 52.374 67.424 57.19l229.362 33.712c14.448 1.806 27.692 11.438 33.712 23.478l102.34 208.894c14.448 28.896 43.344 46.354 74.648 46.354 31.906 0 60.2-17.458 74.648-45.752l102.34-208.894c7.224-13.244 19.264-21.672 33.712-23.478l229.362-33.712c31.906-4.816 57.19-26.488 67.424-55.986 10.234-30.702 1.806-63.21-20.468-86.086l-164.948-161.938c-11.438-10.234-15.050-24.682-13.244-39.13l39.13-228.158c4.214-24.682-1.806-49.364-18.662-67.424-15.050-19.866-38.528-30.702-63.21-30.702v0z" />
<glyph unicode="&#xe91f;" glyph-name="mdi-fullscreen-exit" d="M733.235 295.995h219.73c38.528 0 69.832-31.304 69.832-69.832v-10.234c0-38.528-31.304-69.832-69.832-69.832h-139.664v-139.664c0-38.528-31.304-69.832-69.832-69.832h-10.234c-38.528 0-69.832 31.304-69.832 69.832v219.73c0 38.528 31.304 69.832 69.832 69.832v0zM733.837 960h10.234c38.528 0 69.832-31.304 69.832-69.832v-139.664h139.664c38.528 0 69.832-31.304 69.832-69.832v-10.234c0-38.528-31.304-69.832-69.832-69.832h-219.73c-38.528 0-69.832 31.304-69.832 69.832v219.73c-0.602 38.528 30.702 69.832 69.832 69.832v0zM70.434 295.995h219.73c38.528 0 69.832-31.304 69.832-69.832v-219.73c0-38.528-31.304-69.832-69.832-69.832h-10.234c-38.528 0-69.832 31.304-69.832 69.832v139.664h-139.664c-38.528 0-69.832 31.304-69.832 69.832v10.234c0 38.528 31.304 69.832 69.832 69.832v0zM70.434 750.504h140.266v139.664c0 38.528 31.304 69.832 69.832 69.832h10.234c38.528 0 69.832-31.304 69.832-69.832v-219.73c0-38.528-31.304-69.832-69.832-69.832h-220.332c-38.528 0-69.832 31.304-69.832 69.832v10.234c0 38.528 31.304 69.832 69.832 69.832v0z" />
<glyph unicode="&#xe920;" glyph-name="mdi-fullscreen" d="M953.566-64h-219.73c-38.528 0-69.832 31.304-69.832 69.832v10.234c0 38.528 31.304 69.832 69.832 69.832h139.664v139.664c0 38.528 31.304 69.832 69.832 69.832h10.234c38.528 0 69.832-31.304 69.832-69.832v-219.73c0-38.528-31.304-69.832-69.832-69.832v0zM953.566 600.607h-10.234c-38.528 0-69.832 31.304-69.832 69.832v139.664h-139.664c-38.528 0-69.832 31.304-69.832 69.832v10.234c0 38.528 31.304 69.832 69.832 69.832h219.73c38.528 0 69.832-31.304 69.832-69.832v-219.73c0-38.528-31.304-69.832-69.832-69.832v0zM290.163-64h-219.73c-38.528 0-69.832 31.304-69.832 69.832v219.73c0 38.528 31.304 69.832 69.832 69.832h10.234c38.528 0 69.832-31.304 69.832-69.832v-139.664h139.664c38.528 0 69.832-31.304 69.832-69.832v-10.234c0.602-38.528-30.702-69.832-69.832-69.832v0zM290.163 810.102h-139.664v-139.664c0-38.528-31.304-69.832-69.832-69.832h-10.234c-38.528 0-69.832 31.304-69.832 69.832v219.73c0 38.528 31.304 69.832 69.832 69.832h219.73c38.528 0 69.832-31.304 69.832-69.832v-10.234c0.602-38.528-30.702-69.832-69.832-69.832v0z" />
<glyph unicode="&#xe921;" glyph-name="mdi-picture-as-pdf" d="M975.84 203.287c-28.896-20.468-303.407-202.272-341.935-224.546-45.15-26.488-85.484-66.822-179.998-21.672-30.702 15.050-152.908 78.26-192.64 98.728-40.936 21.070-58.996 17.458-90.902-2.408l-57.792-37.324-112.574 251.034c0 0 122.206 57.19 178.192 78.862 88.494 34.916 128.828 4.816 179.396-27.090 21.672-13.244 90.902-64.414 90.902-64.414s69.832-40.334 138.46-40.334c105.35 0 124.012-6.020 124.012-39.732 0-36.722-68.628-39.732-69.23-39.732h-167.958c-57.792 0-138.46 33.11-138.46 33.11s68.628-72.842 138.46-72.842h169.764c37.324 0.602 108.36 18.060 108.36 79.464 0 79.464-72.24 79.464-163.744 79.464-7.224 0-13.846 1.204-19.866 2.408 3.612 1.806 7.224 3.612 11.438 6.020 16.254 9.030 38.528 22.274 63.21 37.926 65.016 40.334 98.728 45.752 131.236 2.408 22.876 22.876 51.17 29.498 75.852 29.498 27.692 0 51.17-18.060 44.548-47.558 71.036 41.538 105.952 24.682 121.002 4.816 19.866-26.488 5.418-54.18-39.732-86.086v0zM984.268 691.509l-89.698-240.8c-17.458-41.538-63.812-72.24-107.758-72.24h-464.141c-8.428 0-16.254 1.204-23.478 3.612v0c-4.214 1.204-8.428 2.408-12.040 4.214-30.1 13.846-51.17 43.344-51.17 78.862v406.951c0 48.16 39.13 86.688 87.29 86.688h145.082c48.16 0 87.29-39.13 87.29-86.688h231.77c48.16 0 87.29-39.13 87.29-87.29h47.558c25.284 0 46.354-10.234 58.394-28.896 12.040-17.458 13.244-40.936 3.612-64.414v0zM932.496 724.618c-0.602 1.204-4.214 3.010-10.234 3.010h-464.141c-20.468 0-45.752-16.856-53.578-35.518l-89.698-240.8c-3.010-7.224-2.408-10.836-1.806-11.438s3.612-2.408 10.234-2.408h464.141c20.468 0 45.752 16.856 53.578 35.518l89.096 240.8c3.010 6.020 3.010 9.632 2.408 10.836v0z" />
<glyph unicode="&#xe922;" glyph-name="mdi-volume-up" d="M721.195 683.683c-15.652 15.652-40.936 15.652-55.986 0-15.652-15.652-15.652-40.936 0-55.986 46.956-47.558 72.842-110.166 72.842-176.988 0-65.016-25.284-127.022-70.434-173.978-15.050-15.652-15.050-40.936 1.204-55.986 7.826-7.224 17.458-11.438 27.692-11.438s21.070 4.214 28.896 12.040c59.598 62.006 92.708 143.276 92.708 229.362-1.204 87.892-35.518 170.366-96.922 232.974v0zM839.788 856.456c-16.254 14.448-41.538 12.642-55.986-3.612s-12.642-41.538 3.612-55.986c99.932-87.29 157.122-213.108 157.122-345.547 0-130.634-55.986-255.248-153.51-342.537-16.254-14.448-18.060-39.732-3.010-55.986 7.826-9.030 18.662-13.244 29.498-13.244 9.632 0 18.662 3.010 26.488 10.234 114.38 102.34 179.998 248.626 179.998 402.135 0 154.112-67.424 302.203-184.212 404.543v0zM479.793 897.994l-341.935-265.481h-137.858v-368.423h139.062l341.333-266.083c40.334-31.304 72.842-15.652 72.842 34.916v830.156c-0.602 50.568-33.11 66.22-73.444 34.916v0z" />
<glyph unicode="&#xe923;" glyph-name="mdi-videocam" d="M636.915 761.34h-545.411c0 0-91.504 0-91.504-89.096v-448.489c0-88.494 91.504-88.494 91.504-88.494h545.411c0 0 91.504 0 91.504 88.494v446.081c0 91.504-91.504 91.504-91.504 91.504v0zM1010.756 715.588c-7.826 2.408-16.254 2.408-21.672-2.408l-179.998-139.664c-5.418-5.418-7.826-10.836-7.826-16.254v-223.342c0-5.418 2.408-13.244 7.826-16.254l179.998-139.664c2.408-2.408 7.826-5.418 13.244-5.418 2.408 0 5.418 0 10.836 2.408 7.826 2.408 10.836 10.836 10.836 18.662v503.271c0 7.826-5.418 15.652-13.244 18.662v0z" />
<glyph unicode="&#xe924;" glyph-name="mdi-mic" d="M511.699 240.009c117.992 0 213.71 95.718 213.71 213.71v292.571c0.602 117.992-95.116 213.71-213.71 213.71s-213.71-95.718-213.71-213.71v-292.571c0.602-117.992 96.32-213.71 213.71-213.71v0zM827.146 487.431c-18.662 0-33.712-15.050-33.712-33.712 0-155.316-125.818-281.133-281.133-281.133s-281.133 125.818-281.133 281.133c0 18.662-15.050 33.712-33.712 33.712s-33.712-15.050-33.712-33.712c0-179.396 136.654-329.293 314.845-346.751v-102.942h-146.888c-18.662 0-33.712-15.050-33.712-33.712s15.050-33.712 33.712-33.712h360.597c18.662 0 33.712 15.050 33.712 33.712s-15.050 33.712-33.712 33.712h-146.286v102.942c178.794 17.458 314.845 167.356 314.845 346.751 0 18.662-15.050 33.712-33.712 33.712v0z" />
<glyph unicode="&#xe925;" glyph-name="conference-more" d="M256.451 448.301c0-70.817-57.409-128.226-128.226-128.226s-128.226 57.409-128.226 128.226c0 70.817 57.409 128.226 128.226 128.226s128.226-57.409 128.226-128.226zM640.527 448.301c0-70.817-57.409-128.226-128.226-128.226s-128.226 57.409-128.226 128.226c0 70.817 57.409 128.226 128.226 128.226s128.226-57.409 128.226-128.226zM1024 448.301c0-70.817-57.409-128.226-128.226-128.226s-128.226 57.409-128.226 128.226c0 70.817 57.409 128.226 128.226 128.226s128.226-57.409 128.226-128.226z" />
<glyph unicode="&#xe926;" glyph-name="conference-hand-up" d="M863.868 755.32c-19.264 0-31.906-6.622-44.548-6.622v51.17c0 57.792-51.17 108.962-108.962 108.962-19.264 0-38.528-6.622-51.17-12.642-12.642 38.528-51.17 63.812-95.718 63.812s-83.076-25.886-95.718-63.812c-19.264 6.622-38.528 12.642-57.792 12.642-57.792 0-108.962-51.17-108.962-108.962v-351.567l-51.17 102.34c-12.642 25.886-38.528 44.548-63.812 51.17-31.906 6.622-57.792 6.622-83.076-12.642-51.772-32.508-64.414-96.32-39.13-147.49 6.622-12.642 38.528-83.076 134.246-268.491 44.548-95.718 102.34-166.152 153.51-204.68 44.548-31.906 77.056-31.906 83.076-31.906h255.85c44.548 0 83.076 12.642 121.604 44.548 31.906 25.886 63.812 63.812 89.698 114.982 44.548 95.718 70.434 223.944 70.434 384.075v172.774c0.602 57.792-44.548 102.34-108.36 102.34v0zM488.823 442.281c17.458 0 29.498 11.438 29.498 29.498v346.149c0 23.478 17.458 40.936 40.936 40.936s40.936-17.458 40.936-40.936v-346.149c0-17.458 11.438-29.498 29.498-29.498 17.458 0 29.498 11.438 29.498 29.498v299.193c0 23.478 17.458 40.936 40.936 40.936s40.936-17.458 40.936-40.936v-346.149c0-17.458 11.438-29.498 29.498-29.498 17.458 0 29.498 11.438 29.498 29.498v210.7c0 23.478 17.458 40.936 40.936 40.936s40.936-17.458 40.936-40.936v-164.346c0-128.828-23.478-246.218-58.394-322.671-29.498-52.976-76.454-111.37-146.888-111.37h-228.76c0 0-17.458 0-46.956 23.478s-70.434 64.414-123.41 164.346c-81.872 170.366-117.39 234.78-123.41 246.218-11.438 23.478-6.020 46.956 17.458 58.394 0 0 6.020 6.020 11.438 6.020h11.438c11.438 0 17.458-11.438 23.478-17.458l70.434-128.828c17.458-29.498 34.916-40.936 58.394-34.916s29.498 23.478 29.498 58.394v358.189c0 23.478 17.458 40.936 40.936 40.936s40.936-17.458 40.936-40.936v-299.193c1.204-18.060 13.244-29.498 30.702-29.498v0z" />
<glyph unicode="&#xe927;" glyph-name="mdi-setup-video" d="M592.969 966.020h-161.938c-49.364 0-92.708-33.712-104.748-81.872l-19.264-75.852-75.25 21.672c-9.632 3.010-19.866 4.214-29.498 4.214-37.926 0-73.444-19.866-93.31-54.18l-80.668-140.266c-24.682-42.742-16.856-96.922 18.662-131.236l56.588-54.18-56.588-54.782c-35.518-34.314-43.344-88.494-18.662-131.236l80.668-140.266c19.264-33.712 55.384-54.18 93.31-54.18 9.632 0 19.866 1.204 29.498 4.214l75.25 21.672 19.264-76.454c12.040-47.558 54.782-81.27 104.748-81.27h161.938c49.364 0 92.708 33.712 104.748 81.872l19.264 76.454 75.25-21.672c9.632-3.010 19.866-4.214 29.498-4.214 37.926 0 73.444 19.866 93.31 54.18l80.668 140.266c24.682 42.742 16.856 96.922-18.662 131.236l-55.986 54.18 56.588 54.782c35.518 34.314 43.344 88.494 18.662 131.236l-81.27 139.664c-19.866 33.712-55.384 54.18-93.31 54.18-9.632 0-19.866-1.204-29.498-4.214l-75.852-21.672-19.264 75.852c-11.438 48.16-54.782 81.872-104.146 81.872zM592.969 858.262l46.354-184.212 182.406 52.374 80.668-140.266-136.654-131.838 136.654-131.838-80.668-140.266-182.406 52.374-46.354-184.212h-161.938l-45.752 183.61-182.406-52.374-81.27 140.266 136.654 132.44-136.654 131.838 80.668 140.266 183.008-52.374 46.354 184.212h161.336zM512.301 615.657c-89.096 0-161.938-72.24-161.938-161.938s72.24-161.938 161.938-161.938 161.938 72.24 161.938 161.938-72.842 161.938-161.938 161.938zM512.301 561.477c59.598 0 107.758-48.16 107.758-107.758s-48.16-107.758-107.758-107.758-107.758 48.16-107.758 107.758c0 59.598 48.16 107.758 107.758 107.758z" />
<glyph unicode="&#xe928;" glyph-name="conference-vote" d="M113.778 163.556h796.444v511.699c0 17.458-7.826 33.712-21.070 44.548-12.642 10.234-26.488 12.642-35.518 12.642-17.458 0-33.712-7.826-44.548-21.672l-158.928-198.058c-19.264-24.080-54.18-28.294-78.26-10.234l-139.664 104.748c-24.080 18.060-60.2 13.244-78.26-10.234l-227.556-284.143c-10.234-13.244-12.642-26.488-12.642-35.518v-113.778zM966.81 49.778h-910.222c-31.304 0-56.588 25.284-56.588 56.588v170.366c0 38.528 13.244 76.454 37.324 106.554l227.556 285.347c55.986 69.832 164.346 83.678 235.382 30.1l95.718-71.638 124.012 155.316c32.508 40.936 81.27 63.812 133.042 63.812 38.528 0 76.454-13.244 106.554-37.324 40.936-32.508 63.812-81.27 63.812-133.042v-568.889c0.602-31.906-25.284-57.19-56.588-57.19z" />
<glyph unicode="&#xe929;" glyph-name="conference-reduce" d="M511.699 960c-282.337 0-511.699-229.362-511.699-511.699 0-282.939 229.362-511.699 511.699-511.699 282.939 0 511.699 229.362 511.699 511.699 0.602 282.337-228.76 511.699-511.699 511.699zM735.041 382.683h-446.081c-36.12 0-65.618 29.498-65.618 65.618s29.498 65.618 65.618 65.618h446.081c36.12 0 65.618-29.498 65.618-65.618s-29.498-65.618-65.618-65.618z" />
<glyph unicode="&#xe92a;" glyph-name="conference-local" d="M868.684 874.516h-713.369c-85.484 0-155.316-69.832-155.316-154.714v-543.003c0-85.484 69.832-155.316 155.316-155.316h713.369c85.484 0 155.316 69.832 155.316 155.316v543.003c0 84.882-69.832 154.714-155.316 154.714zM946.944 190.044c0-48.762-40.334-89.096-89.096-89.096h-691.697c-48.762 0-89.096 40.334-89.096 89.096v515.913c0 48.762 40.334 89.096 89.096 89.096h691.697c48.762 0 89.096-40.334 89.096-89.096v-515.913zM527.351 727.026h359.393v-293.775h-359.393v293.775z" />
<glyph unicode="&#xe92b;" glyph-name="conference-add-particiopant" d="M729.021 245.427h-74.046c-39.732 0-72.842-30.702-72.842-68.628 0-38.528 32.508-68.628 72.842-68.628h74.046v-69.23c0-37.324 33.11-68.026 73.444-68.026 40.936 0 73.444 30.702 73.444 68.026v69.23h75.25c39.732 0 72.842 30.702 72.842 68.628 0 38.528-32.508 68.628-72.842 68.628h-74.046v69.23c0 37.324-33.11 68.026-73.444 68.026-40.936 0-73.444-30.702-73.444-68.026v-69.23zM600.795 315.861c-2.408 0.602-4.214 1.204-6.020 2.408-75.852 27.090-48.762 116.186-46.354 121.002 21.672 13.846 66.822 74.046 77.056 94.514 16.254 4.816 40.936 15.652 49.364 58.394 7.224 36.722-10.836 51.17-19.264 55.986 0 4.214 1.204 7.826 1.204 12.040 0 147.49-80.066 266.685-246.82 266.685-172.172 0-246.82-119.196-246.82-266.685 0-4.816 1.204-9.030 1.204-13.244-9.030-6.020-24.080-20.468-17.458-54.782 7.826-41.538 31.304-52.976 47.558-58.394 10.234-19.866 21.672-39.13 36.722-56.588 12.642-14.448 25.886-27.090 40.936-38.528 3.010-5.418 31.906-78.862-25.886-111.37-73.444-40.936-234.178-49.966-243.81-140.266-5.418-54.18 0.602-75.852 10.836-86.086h481.599c-15.050 21.672-23.478 47.558-23.478 75.852 0 70.434 56.588 129.43 129.43 139.062z" />
<glyph unicode="&#xe92c;" glyph-name="mdi-call-end" d="M511.699 642.145c199.262 0 307.621-51.772 364.209-107.758 43.344-43.344 56.588-90.3 56.588-118.594 0 0-193.844 0-193.844 0v19.264c0 12.642-4.816 24.080-13.244 32.508s-19.866 13.244-32.508 13.244h-361.801c-25.284 0-45.752-20.468-45.752-45.752v-19.264h-193.844c0 64.414 66.822 226.352 420.195 226.352zM932.496 299.607c0-25.284-20.468-45.752-45.752-45.752h-102.34c-12.642 0-24.080 4.816-32.508 13.244s-13.244 19.866-13.244 32.508v69.832h193.844v-69.832zM239.596 253.855h-102.34c-12.642 0-24.080 4.816-32.508 13.244s-13.244 19.866-13.244 32.508v69.832h193.844v-69.832c0-25.284-20.468-45.752-45.752-45.752zM0 415.793v-116.186c0-36.722 14.448-71.036 40.334-96.922s60.2-40.334 96.922-40.334h102.34c75.852 0 137.256 61.404 137.256 137.256v89.096h269.695v-89.096c0-36.722 14.448-71.036 40.334-96.922s60.2-40.334 96.922-40.334h102.34c75.852 0 137.256 61.404 137.256 137.256v116.186c0 30.1-7.826 107.758-83.076 183.008-89.096 89.698-232.974 134.848-428.623 134.848-403.941 0-511.699-199.864-511.699-317.855z" />
<glyph unicode="&#xe92d;" glyph-name="conference-network" d="M80.668 10.046v0c-44.548 0-80.668 36.12-80.668 80.668v273.307c0 44.548 36.12 80.668 80.668 80.668v0c44.548 0 80.668-36.12 80.668-80.668v-273.307c0-44.548-36.12-80.668-80.668-80.668zM366.015 10.046v0c-44.548 0-80.668 36.12-80.668 80.668v429.225c0 44.548 36.12 80.668 80.668 80.668v0c44.548 0 80.668-36.12 80.668-80.668v-429.225c0-44.548-36.12-80.668-80.668-80.668zM654.373 10.046v0c-44.548 0-80.668 36.12-80.668 80.668v559.257c0 44.548 36.12 80.668 80.668 80.668v0c44.548 0 80.668-36.12 80.668-80.668v-558.655c0-45.15-36.12-81.27-80.668-81.27zM943.332 10.046v0c-44.548 0-80.668 36.12-80.668 80.668v714.573c0 44.548 36.12 80.668 80.668 80.668v0c44.548 0 80.668-36.12 80.668-80.668v-714.573c0-44.548-36.12-80.668-80.668-80.668z" />
<glyph unicode="&#xe92e;" glyph-name="meeting-tpl" d="M766.467 590.482h-510.976c-20.157 0-36.46 16.303-36.46 36.352 0 20.157 16.303 36.46 36.46 36.46h510.976c20.157 0 36.46-16.303 36.46-36.46 0-20.049-16.303-36.352-36.46-36.352zM766.467 408.398h-510.976c-20.157 0-36.46 16.303-36.46 36.352 0 20.157 16.303 36.46 36.46 36.46h510.976c20.157 0 36.46-16.303 36.46-36.46 0-20.049-16.303-36.352-36.46-36.352zM766.467 226.423h-510.976c-20.157 0-36.46 16.303-36.46 36.352 0 20.157 16.303 36.46 36.46 36.46h510.976c20.157 0 36.46-16.303 36.46-36.46 0-20.049-16.303-36.352-36.46-36.352zM948.9 814.36c0 40.205-32.741 72.812-73.027 72.812h-729.896c-40.313 0-73.054-32.606-73.054-72.812v-728.118c0-40.205 32.741-72.812 73.054-72.812h730.004c40.313 0 73.054 32.606 73.054 72.812v728.118h-0.135zM875.981-59.381h-730.004c-80.627 0-145.974 65.24-145.974 145.624v728.118c0 80.411 65.347 145.651 145.974 145.651h730.004c80.627 0 145.974-65.24 145.974-145.651v-728.118c0-80.384-65.347-145.624-145.974-145.624z" />
<glyph unicode="&#xe92f;" glyph-name="apply-conference" d="M988.8 816h-108.8v108.8c0 19.2-16 35.2-35.2 35.2v0c-19.2 0-35.2-16-35.2-35.2v-108.8h-108.8c-19.2 0-35.2-16-35.2-35.2v0c0-19.2 16-35.2 35.2-35.2h108.8v-108.8c0-19.2 16-35.2 35.2-35.2v0c19.2 0 35.2 16 35.2 35.2v108.8h108.8c19.2 0 35.2 16 35.2 35.2v0c0 19.2-16 35.2-35.2 35.2zM704 464l-288 166.4c-9.6 6.4-22.4 6.4-32 0s-16-16-16-25.6v-332.8c0-9.6 6.4-22.4 16-25.6 6.4-3.2 9.6-6.4 16-6.4s9.6 0 16 6.4l288 166.4c9.6 6.4 16 16 16 25.6s-6.4 22.4-16 25.6zM940.8 92.8c0-41.6-32-73.6-73.6-73.6h-713.6c-41.6 0-73.6 32-73.6 73.6v713.6c0 41.6 32 73.6 73.6 73.6h432c22.4 0 41.6 19.2 41.6 41.6v0c0 22.4-19.2 41.6-41.6 41.6h-470.4c-67.2 0-118.4-54.4-118.4-118.4v-787.2c0-67.2 54.4-118.4 118.4-118.4h787.2c67.2 0 118.4 54.4 118.4 118.4v470.4c0 22.4-19.2 41.6-41.6 41.6v0c-22.4 0-41.6-19.2-41.6-41.6v-435.2z" />
<glyph unicode="&#xe930;" glyph-name="video-ent" d="M25.6 528h352c16 0 25.6 12.8 25.6 32v0c0 16-12.8 32-25.6 32h-352c-16 0-25.6-12.8-25.6-32 0-16 9.6-32 25.6-32v0zM25.6 307.2h329.6c16 0 25.6 12.8 25.6 32v0c0 16-12.8 32-25.6 32h-326.4c-16 0-25.6-12.8-25.6-32-3.2-19.2 6.4-32 22.4-32v0zM995.2 560c-19.2 19.2-41.6 28.8-67.2 28.8h-441.6c-25.6 0-48-9.6-67.2-28.8s-28.8-41.6-28.8-67.2v-320c0-25.6 9.6-48 28.8-67.2s41.6-28.8 67.2-28.8h444.8c25.6 0 51.2 9.6 67.2 28.8 19.2 19.2 28.8 41.6 28.8 67.2v320c-6.4 25.6-16 48-32 67.2v0zM963.2 185.6c0-28.8-22.4-51.2-51.2-51.2h-419.2c-28.8 0-51.2 22.4-51.2 51.2v297.6c0 28.8 22.4 51.2 51.2 51.2h419.2c28.8 0 51.2-22.4 51.2-51.2v-297.6zM844.8 358.4l-214.4 121.6c-6.4 3.2-16 3.2-22.4 0s-12.8-12.8-12.8-19.2v-243.2c0-9.6 3.2-16 12.8-19.2 3.2-3.2 6.4-3.2 12.8-3.2s6.4 0 12.8 3.2l214.4 121.6c6.4 3.2 12.8 12.8 12.8 19.2-3.2 6.4-3.2 16-16 19.2v0zM377.6 76.8h-355.2c-12.8 0-25.6 9.6-25.6 25.6v22.4c0 12.8 9.6 25.6 25.6 25.6h355.2c12.8 0 25.6-9.6 25.6-25.6v-25.6c-3.2-12.8-12.8-22.4-25.6-22.4zM883.2 748.8h-857.6c-12.8 0-25.6 9.6-25.6 25.6v22.4c0 12.8 9.6 25.6 25.6 25.6h857.6c12.8 0 25.6-9.6 25.6-25.6v-25.6c-6.4-12.8-16-22.4-25.6-22.4z" />
<glyph unicode="&#xe931;" glyph-name="video" d="M25.6 528h352c16 0 25.6 12.8 25.6 32v0c0 16-12.8 32-25.6 32h-352c-16 0-25.6-12.8-25.6-32 0-16 9.6-32 25.6-32v0zM25.6 307.2h329.6c16 0 25.6 12.8 25.6 32v0c0 16-12.8 32-25.6 32h-326.4c-16 0-25.6-12.8-25.6-32-3.2-19.2 6.4-32 22.4-32v0zM995.2 560c-19.2 19.2-41.6 28.8-67.2 28.8h-441.6c-25.6 0-48-9.6-67.2-28.8s-28.8-41.6-28.8-67.2v-320c0-25.6 9.6-48 28.8-67.2s41.6-28.8 67.2-28.8h444.8c25.6 0 51.2 9.6 67.2 28.8 19.2 19.2 28.8 41.6 28.8 67.2v320c-6.4 25.6-16 48-32 67.2v0zM963.2 185.6c0-28.8-22.4-51.2-51.2-51.2h-419.2c-28.8 0-51.2 22.4-51.2 51.2v297.6c0 28.8 22.4 51.2 51.2 51.2h419.2c28.8 0 51.2-22.4 51.2-51.2v-297.6zM844.8 358.4l-214.4 121.6c-6.4 3.2-16 3.2-22.4 0s-12.8-12.8-12.8-19.2v-243.2c0-9.6 3.2-16 12.8-19.2 3.2-3.2 6.4-3.2 12.8-3.2s6.4 0 12.8 3.2l214.4 121.6c6.4 3.2 12.8 12.8 12.8 19.2-3.2 6.4-3.2 16-16 19.2v0zM377.6 76.8h-355.2c-12.8 0-25.6 9.6-25.6 25.6v22.4c0 12.8 9.6 25.6 25.6 25.6h355.2c12.8 0 25.6-9.6 25.6-25.6v-25.6c-3.2-12.8-12.8-22.4-25.6-22.4zM883.2 748.8h-857.6c-12.8 0-25.6 9.6-25.6 25.6v22.4c0 12.8 9.6 25.6 25.6 25.6h857.6c12.8 0 25.6-9.6 25.6-25.6v-25.6c-6.4-12.8-16-22.4-25.6-22.4z" />
<glyph unicode="&#xe932;" glyph-name="home-service" d="M236.8 960c-131.2 0-236.8-105.6-236.8-236.8s105.6-236.8 236.8-236.8h236.8v236.8c3.2 131.2-105.6 236.8-236.8 236.8v0zM403.2 556.8h-163.2c-89.6 0-163.2 73.6-163.2 163.2s73.6 163.2 163.2 163.2c89.6 0 163.2-73.6 163.2-163.2v-163.2zM1024 723.2c0 131.2-105.6 236.8-236.8 236.8s-236.8-105.6-236.8-236.8v-236.8h236.8c131.2 0 236.8 105.6 236.8 236.8v0zM620.8 723.2c0 89.6 73.6 163.2 163.2 163.2s163.2-73.6 163.2-163.2c0-89.6-73.6-163.2-163.2-163.2h-163.2v163.2zM0 172.8c0-131.2 105.6-236.8 236.8-236.8s236.8 105.6 236.8 236.8v240h-236.8c-131.2 0-236.8-108.8-236.8-240v0zM403.2 172.8c0-89.6-73.6-163.2-163.2-163.2s-163.2 73.6-163.2 163.2c0 89.6 73.6 163.2 163.2 163.2h163.2v-163.2zM787.2 412.8h-236.8v-236.8c0-131.2 105.6-236.8 236.8-236.8s236.8 105.6 236.8 236.8c0 128-105.6 236.8-236.8 236.8v0zM787.2 9.6c-89.6 0-163.2 73.6-163.2 163.2v163.2h163.2c89.6 0 163.2-73.6 163.2-163.2s-73.6-163.2-163.2-163.2v0z" />
<glyph unicode="&#xe933;" glyph-name="home-matter" d="M908.8 908.8h-793.6c-64 0-115.2-51.2-115.2-115.2v-691.2c0-64 51.2-115.2 115.2-115.2h793.6c64 0 115.2 51.2 115.2 115.2v691.2c0 64-51.2 115.2-115.2 115.2v0zM956.8 102.4c0-28.8-22.4-48-48-48h-793.6c-25.6 0-48 22.4-48 48v691.2c0 25.6 22.4 48 48 48h793.6c25.6 0 48-22.4 48-48v-691.2zM368 713.6l-115.2-115.2-51.2 51.2c-16 16-41.6 16-51.2 0-16-16-16-41.6 0-51.2l83.2-83.2c6.4-6.4 16-9.6 32-9.6s16 6.4 32 9.6l140.8 140.8c16 16 16 41.6 0 51.2-35.2 19.2-54.4 19.2-70.4 6.4v0zM851.2 652.8h-361.6c-25.6 0-35.2-16-35.2-35.2 0-25.6 16-35.2 35.2-35.2h361.6c25.6 0 35.2 16 35.2 35.2s-16 35.2-35.2 35.2v0zM272 416c-67.2 0-121.6-51.2-121.6-121.6s51.2-121.6 121.6-121.6c67.2 0 121.6 51.2 121.6 121.6 0 73.6-57.6 121.6-121.6 121.6v0zM272 259.2c-25.6 0-41.6 16-41.6 41.6s16 41.6 41.6 41.6c25.6 0 41.6-16 41.6-41.6 3.2-25.6-19.2-41.6-41.6-41.6v0zM851.2 336h-361.6c-25.6 0-35.2-16-35.2-35.2s16-35.2 35.2-35.2h361.6c25.6 0 35.2 16 35.2 35.2s-16 35.2-35.2 35.2v0z" />
<glyph unicode="&#xe934;" glyph-name="home-account" d="M1024 598.4v204.8c0 35.2-22.4 64-57.6 64h-902.4c-35.2 0-64-28.8-64-64v-710.4c0-35.2 28.8-64 64-64h896c35.2 0 64 28.8 64 64v505.6zM947.2 105.6h-867.2v448h867.2v-448zM947.2 630.4h-867.2v160h867.2v-160zM156.8 342.4h342.4c16 0 25.6 12.8 25.6 25.6s-12.8 25.6-25.6 25.6h-342.4c-16 0-25.6-12.8-25.6-25.6s12.8-25.6 25.6-25.6zM604.8 342.4h80c16 0 25.6 12.8 25.6 25.6s-12.8 25.6-25.6 25.6h-80c-16 0-25.6-12.8-25.6-25.6s9.6-25.6 25.6-25.6zM156.8 211.2h262.4c16 0 25.6 12.8 25.6 25.6s-12.8 25.6-25.6 25.6h-262.4c-16 0-25.6-12.8-25.6-25.6s12.8-25.6 25.6-25.6z" />
<glyph unicode="&#xe935;" glyph-name="more" d="M1008 416l-496-467.2c-22.4-16-51.2-16-70.4 3.2-16 16-16 44.8 0 60.8l460.8 432-460.8 432c-9.6 9.6-12.8 19.2-12.8 32s6.4 25.6 12.8 32c19.2 19.2 51.2 19.2 70.4 0l496-467.2c9.6-9.6 16-19.2 16-32 0-6.4-6.4-19.2-16-25.6v0zM598.4 448c0-12.8-6.4-25.6-16-32l-496-467.2c-22.4-16-51.2-16-70.4 3.2-16 16-16 44.8 0 60.8l460.8 432-460.8 432c-9.6 9.6-16 19.2-16 32s6.4 25.6 16 32c19.2 19.2 51.2 19.2 70.4 0l496-467.2c9.6-3.2 16-12.8 16-25.6v0z" />
<glyph unicode="&#xe936;" glyph-name="user-phone" d="M758.4-64h-492.8c-57.6 0-105.6 48-105.6 105.6v812.8c0 57.6 48 105.6 105.6 105.6h492.8c57.6 0 105.6-48 105.6-105.6v-812.8c0-57.6-44.8-105.6-105.6-105.6v0zM812.8 854.4c0 28.8-22.4 54.4-54.4 54.4h-492.8c-28.8 0-54.4-22.4-54.4-54.4v-812.8c0-28.8 22.4-54.4 54.4-54.4h492.8c28.8 0 54.4 22.4 54.4 54.4v812.8zM592 784h-160c-16 0-25.6 12.8-25.6 25.6s12.8 25.6 25.6 25.6h160c16 0 25.6-12.8 25.6-25.6s-12.8-25.6-25.6-25.6v0zM512 166.4c28.8 0 54.4-22.4 54.4-54.4 0-28.8-22.4-54.4-54.4-54.4-28.8 0-54.4 22.4-54.4 54.4 0 28.8 25.6 54.4 54.4 54.4v0z" />
<glyph unicode="&#xe937;" glyph-name="user-sip-pwd" d="M876.8 569.6h-729.6c-41.6 0-73.6-32-73.6-73.6v-486.4c0-41.6 32-73.6 73.6-73.6h729.6c41.6 0 73.6 32 73.6 73.6v486.4c0 41.6-32 73.6-73.6 73.6v0zM876.8 60.8c0-41.6-9.6-48-48-48h-633.6c-41.6 0-48 9.6-48 48v390.4c0 41.6 9.6 48 48 48h633.6c41.6 0 48-9.6 48-48v-390.4zM166.4 608c19.2 0 35.2 16 38.4 35.2 32 140.8 156.8 243.2 307.2 243.2 118.4 0 217.6-64 272-156.8 6.4-12.8 19.2-22.4 32-22.4 19.2 0 35.2 16 35.2 35.2 0 6.4-3.2 16-6.4 22.4-67.2 115.2-192 195.2-336 195.2-188.8 0-345.6-128-380.8-307.2 0 0 0 0 0-3.2v-6.4c0-19.2 19.2-35.2 38.4-35.2v0zM451.2 204.8c-9.6-6.4-22.4-12.8-38.4-12.8-6.4 0-16 0-25.6 3.2s-16 3.2-19.2 3.2c-3.2 0-3.2 0-6.4-3.2 0-3.2-3.2-3.2-3.2-3.2h-6.4v48h6.4c0-6.4 3.2-12.8 6.4-19.2s6.4-9.6 9.6-12.8c3.2-3.2 6.4-3.2 12.8-6.4s12.8-3.2 22.4-3.2c9.6 0 19.2 3.2 25.6 6.4s9.6 9.6 9.6 16-3.2 12.8-12.8 16-19.2 6.4-32 12.8c-12.8 6.4-22.4 9.6-32 16-6.4 6.4-12.8 16-12.8 25.6 0 12.8 3.2 22.4 12.8 28.8s19.2 9.6 35.2 9.6c6.4 0 12.8 0 22.4-3.2s12.8-3.2 16-3.2c3.2 0 6.4 0 6.4 3.2s3.2 3.2 3.2 3.2h6.4v-41.6h-6.4c0 6.4-3.2 9.6-6.4 12.8s-6.4 6.4-9.6 12.8c-3.2 3.2-6.4 3.2-12.8 6.4s-12.8 3.2-22.4 3.2-16-3.2-19.2-6.4c-6.4-3.2-6.4-9.6-6.4-12.8s3.2-9.6 6.4-12.8c6.4-3.2 12.8-6.4 19.2-9.6l35.2-12.8c6.4-3.2 12.8-9.6 19.2-16 3.2-6.4 6.4-12.8 6.4-22.4 3.2-9.6 0-19.2-9.6-25.6zM544 204.8c3.2-3.2 6.4-3.2 12.8-3.2h6.4v-6.4h-80v6.4h6.4c6.4 0 12.8 3.2 16 3.2 3.2 3.2 3.2 6.4 3.2 9.6v92.8c0 3.2 0 6.4-3.2 9.6s-9.6 3.2-16 3.2h-6.4v6.4h80v-6.4h-6.4c-6.4 0-9.6-3.2-12.8-3.2-3.2-3.2-3.2-6.4-3.2-9.6v-92.8c-3.2-3.2 0-6.4 3.2-9.6zM688 316.8c-9.6 6.4-25.6 9.6-44.8 9.6h-73.6v-6.4h6.4c6.4 0 9.6-3.2 12.8-3.2 3.2-3.2 3.2-6.4 3.2-9.6v-92.8c0-3.2 0-6.4-3.2-9.6s-6.4-3.2-9.6-3.2h-6.4v-6.4h73.6v6.4h-6.4c-6.4 0-9.6 3.2-12.8 3.2-3.2 3.2-3.2 6.4-3.2 9.6v41.6c3.2 0 9.6 0 16 0s9.6 0 9.6 0c19.2 0 32 3.2 44.8 9.6 9.6 6.4 16 16 16 25.6-6.4 12.8-9.6 19.2-22.4 25.6zM662.4 268.8c-6.4-3.2-19.2-6.4-38.4-6.4h-3.2v51.2c0 3.2 0 3.2 3.2 6.4 3.2 0 6.4 3.2 12.8 3.2 12.8 0 22.4-3.2 28.8-6.4s9.6-12.8 9.6-22.4c-3.2-16-6.4-22.4-12.8-25.6z" />
<glyph unicode="&#xe938;" glyph-name="user-email" d="M505.6 425.6c-6.4 0-9.6 3.2-16 3.2l-403.2 272c-12.8 9.6-16 25.6-6.4 38.4s25.6 16 38.4 6.4l387.2-259.2 393.6 259.2c12.8 9.6 28.8 6.4 38.4-6.4s6.4-28.8-6.4-38.4l-409.6-272c-3.2 0-9.6-3.2-16-3.2v0zM908.8 64h-796.8c-64 0-112 51.2-112 112v547.2c0 60.8 51.2 112 112 112h796.8c64 0 112-51.2 112-112v-547.2c0-60.8-51.2-112-112-112v0zM112 784c-32 0-57.6-25.6-57.6-57.6v-547.2c0-32 25.6-57.6 57.6-57.6h796.8c32 0 57.6 25.6 57.6 57.6v547.2c0 32-25.6 57.6-57.6 57.6h-796.8z" />
<glyph unicode="&#xe939;" glyph-name="user-job" d="M960 512h-896v160c0 35.2 28.8 64 64 64h768c35.2 0 64-28.8 64-64v-160zM448 416c0 12.8 3.2 22.4 9.6 32h108.8c6.4-9.6 9.6-19.2 9.6-32 0-35.2-28.8-64-64-64s-64 28.8-64 64v0zM960 96c0-35.2-28.8-64-64-64h-768c-35.2 0-64 28.8-64 64v352h323.2c-3.2-9.6-3.2-22.4-3.2-32 0-70.4 57.6-128 128-128s128 57.6 128 128c0 9.6-3.2 22.4-3.2 32h323.2v-352zM384 832c0 19.2 12.8 32 32 32h192c19.2 0 32-12.8 32-32v-32h-256v32zM896 800h-192v64c0 35.2-28.8 64-64 64h-256c-35.2 0-64-28.8-64-64v-64h-192c-70.4 0-128-57.6-128-128v-576c0-70.4 57.6-128 128-128h768c70.4 0 128 57.6 128 128v576c0 70.4-57.6 128-128 128v0z" />
<glyph unicode="&#xe93a;" glyph-name="user-personal-deptwo" d="M908.8 217.6v230.4h-368v230.4c70.4 16 121.6 80 112 153.6-6.4 73.6-67.2 128-140.8 128s-134.4-54.4-140.8-128 41.6-137.6 112-153.6v-230.4h-368v-230.4c-70.4-16-121.6-80-112-153.6 6.4-73.6 67.2-128 140.8-128s134.4 54.4 140.8 128c6.4 73.6-41.6 137.6-112 153.6v172.8h681.6v-172.8c-70.4-16-121.6-80-112-153.6 6.4-73.6 67.2-128 140.8-128s134.4 54.4 140.8 128-41.6 137.6-115.2 153.6v0z" />
<glyph unicode="&#xe93b;" glyph-name="user-personal-depone" d="M544 656c76.8 16 131.2 86.4 121.6 166.4-6.4 80-73.6 137.6-153.6 137.6s-147.2-60.8-153.6-137.6c-6.4-80 44.8-150.4 121.6-166.4l-3.2-412.8c-76.8-16-131.2-86.4-121.6-166.4 6.4-80 73.6-137.6 153.6-137.6s147.2 60.8 153.6 137.6c6.4 80-44.8 150.4-121.6 166.4l3.2 412.8z" />
<glyph unicode="&#xe93c;" glyph-name="user-personal-depthree" d="M908.8 217.6v230.4h-368v230.4c70.4 16 121.6 80 112 153.6-6.4 73.6-67.2 128-140.8 128s-134.4-54.4-140.8-128c-6.4-73.6 41.6-137.6 112-153.6v-230.4h-368v-230.4c-70.4-16-121.6-80-112-153.6 6.4-73.6 67.2-128 140.8-128s134.4 54.4 140.8 128c6.4 73.6-41.6 137.6-112 153.6v172.8h313.6v-176c-64-12.8-112-70.4-112-137.6 0-76.8 64-140.8 140.8-140.8s140.8 64 140.8 140.8c0 70.4-51.2 128-115.2 137.6v176h313.6v-172.8c-70.4-16-121.6-80-112-153.6 6.4-73.6 67.2-128 140.8-128s134.4 54.4 140.8 128c6.4 73.6-41.6 140.8-115.2 153.6z" />
<glyph unicode="&#xe93d;" glyph-name="user-number" d="M198.4 451.2c6.4-12.8 16-32 28.8-41.6 3.2-6.4 9.6-9.6 16-12.8-44.8-16-86.4-51.2-105.6-96-3.2-6.4-3.2-9.6-6.4-12.8 0 0 0-3.2-3.2-6.4-6.4-16-6.4-38.4 0-51.2s16-28.8 32-35.2c16-9.6 35.2-12.8 51.2-12.8h214.4c19.2 0 38.4 3.2 48 9.6 12.8 6.4 22.4 16 32 35.2 3.2 6.4 3.2 16 3.2 28.8 0 9.6-3.2 22.4-3.2 28.8-3.2 9.6-6.4 16-6.4 19.2-9.6 16-16 32-35.2 48-19.2 19.2-48 38.4-76.8 48 6.4 3.2 9.6 6.4 16 12.8 12.8 12.8 19.2 28.8 28.8 41.6 6.4 16 9.6 32 9.6 48s-3.2 32-9.6 48c-6.4 12.8-16 32-28.8 41.6-9.6 12.8-22.4 19.2-41.6 28.8-28.8 12.8-60.8 12.8-96 0-12.8-6.4-28.8-16-41.6-28.8s-19.2-28.8-28.8-41.6c-3.2-12.8-6.4-32-6.4-48 3.2-19.2 6.4-32 9.6-51.2v0zM425.6 323.2c12.8-12.8 16-19.2 28.8-38.4 3.2-3.2 3.2-6.4 3.2-9.6v-3.2c0-3.2 3.2-9.6 3.2-16 0-3.2 0-9.6-3.2-12.8 0-3.2-3.2-6.4-12.8-12.8h-224c-9.6 0-19.2 0-28.8 6.4-6.4 3.2-9.6 9.6-12.8 12.8-3.2 6.4-3.2 16 0 22.4 0 3.2 0 3.2 3.2 6.4 0 3.2 0 3.2 3.2 6.4 28.8 51.2 80 83.2 137.6 83.2 35.2-3.2 73.6-19.2 102.4-44.8v0zM243.2 531.2c3.2 9.6 9.6 16 16 28.8 6.4 6.4 16 12.8 22.4 16 9.6 3.2 19.2 6.4 32 6.4 9.6 0 19.2-3.2 32-6.4 9.6-3.2 16-9.6 22.4-16s12.8-16 16-22.4c3.2-9.6 6.4-19.2 6.4-32 0-9.6-3.2-19.2-6.4-32-3.2-9.6-9.6-16-16-22.4s-16-12.8-22.4-16c-9.6-3.2-19.2-6.4-32-6.4-9.6 0-19.2 3.2-32 6.4-9.6 3.2-16 9.6-22.4 16s-12.8 16-16 22.4c-3.2 9.6-6.4 19.2-6.4 32 3.2 3.2 3.2 16 6.4 25.6v0zM870.4 492.8c0-12.8-9.6-28.8-28.8-28.8h-217.6c-9.6 0-19.2 3.2-28.8 12.8s-6.4 19.2 0 28.8 12.8 12.8 22.4 12.8h217.6c25.6 3.2 35.2-12.8 35.2-25.6v0zM870.4 352c0-12.8-9.6-28.8-28.8-28.8h-140.8c-9.6 0-19.2 3.2-28.8 12.8-6.4 9.6-6.4 19.2 0 28.8s12.8 12.8 22.4 12.8h144c22.4 3.2 32-12.8 32-25.6v0zM1024 736v-624c0-38.4-35.2-67.2-76.8-67.2h-873.6c-41.6 0-76.8 32-76.8 67.2v624c0 38.4 35.2 67.2 76.8 67.2h99.2c12.8 0 22.4-9.6 22.4-22.4s-9.6-22.4-22.4-22.4h-102.4c-12.8 0-22.4-9.6-22.4-19.2v-624c0-9.6 9.6-19.2 22.4-19.2h880c12.8 0 22.4 9.6 22.4 19.2v624c0 9.6-9.6 19.2-22.4 19.2h-105.6c-12.8 0-22.4 9.6-22.4 22.4s9.6 22.4 22.4 22.4h105.6c41.6 3.2 73.6-25.6 73.6-67.2v0zM249.6 736v96c0 12.8 9.6 19.2 22.4 19.2s22.4-9.6 22.4-19.2v-96c0-12.8-9.6-22.4-22.4-22.4-12.8-6.4-22.4 9.6-22.4 22.4v0zM345.6 780.8c0 12.8 9.6 22.4 22.4 22.4h281.6c12.8 0 22.4-9.6 22.4-22.4s-9.6-22.4-22.4-22.4h-281.6c-12.8-3.2-22.4 9.6-22.4 22.4v0zM732.8 736v96c0 12.8 9.6 19.2 22.4 19.2s22.4-9.6 22.4-19.2v-96c0-12.8-9.6-22.4-22.4-22.4s-22.4 9.6-22.4 22.4v0z" />
<glyph unicode="&#xe93e;" glyph-name="user-sip" d="M384 355.2c-16-12.8-38.4-19.2-64-19.2-12.8 0-25.6 3.2-41.6 6.4s-25.6 6.4-28.8 6.4c-3.2 0-6.4 0-9.6-3.2s-3.2-6.4-3.2-6.4h-9.6v73.6h9.6c3.2-9.6 6.4-19.2 9.6-28.8s9.6-16 16-22.4c3.2-3.2 9.6-6.4 19.2-9.6s22.4-6.4 35.2-6.4c16 0 28.8 3.2 38.4 9.6s16 16 16 25.6c0 12.8-6.4 22.4-19.2 28.8s-28.8 12.8-51.2 19.2c-22.4 6.4-38.4 16-51.2 28.8-12.8 9.6-19.2 25.6-19.2 41.6 0 19.2 6.4 35.2 22.4 44.8 12.8 9.6 35.2 16 57.6 16 9.6 0 22.4-3.2 35.2-6.4s22.4-6.4 25.6-6.4c6.4 0 9.6 0 9.6 3.2 3.2 3.2 3.2 6.4 3.2 6.4h9.6v-67.2h-9.6c-3.2 9.6-6.4 16-9.6 22.4s-6.4 12.8-12.8 19.2c-3.2 3.2-12.8 6.4-22.4 12.8-9.6 3.2-22.4 6.4-35.2 6.4s-25.6-3.2-32-9.6c-9.6-6.4-12.8-12.8-12.8-22.4s3.2-16 12.8-22.4c9.6-6.4 19.2-9.6 32-16l54.4-22.4c12.8-6.4 22.4-12.8 32-25.6 6.4-9.6 12.8-22.4 12.8-35.2 3.2-12.8-3.2-28.8-19.2-41.6zM534.4 358.4c3.2-3.2 9.6-6.4 19.2-6.4h9.6v-6.4h-131.2v6.4h12.8c12.8 0 19.2 3.2 25.6 6.4 3.2 3.2 6.4 9.6 6.4 16v153.6c0 6.4-3.2 12.8-6.4 16s-12.8 6.4-25.6 6.4h-12.8v6.4h131.2v-6.4h-9.6c-9.6 0-16-3.2-19.2-6.4s-6.4-9.6-6.4-16v-153.6c0-9.6 0-12.8 6.4-16zM771.2 540.8c-19.2 9.6-41.6 16-73.6 16h-118.4v-6.4h9.6c9.6 0 16-3.2 19.2-6.4s6.4-9.6 6.4-16v-153.6c0-6.4 0-12.8-3.2-16s-9.6-6.4-19.2-6.4h-9.6v-6.4h118.4v6.4h-9.6c-9.6 0-16 3.2-22.4 6.4-3.2 3.2-6.4 9.6-6.4 16v67.2c6.4 0 12.8 0 22.4 0s16 0 16 0c28.8 0 51.2 6.4 70.4 16s25.6 25.6 25.6 41.6c0 16-9.6 32-25.6 41.6zM726.4 457.6c-9.6-6.4-32-9.6-60.8-9.6h-6.4v83.2c0 3.2 3.2 6.4 6.4 9.6s9.6 3.2 19.2 3.2c22.4 0 38.4-3.2 44.8-12.8 9.6-6.4 12.8-19.2 12.8-35.2 0-19.2-6.4-32-16-38.4zM953.6 809.6c12.8 0 22.4-9.6 22.4-22.4v-681.6c0-12.8-9.6-22.4-22.4-22.4h-883.2c-12.8 0-22.4 9.6-22.4 22.4v681.6c0 12.8 9.6 22.4 22.4 22.4h883.2zM953.6 860.8h-883.2c-38.4 0-70.4-32-70.4-70.4v-681.6c0-38.4 32-70.4 70.4-70.4h883.2c38.4 0 70.4 32 70.4 70.4v681.6c0 38.4-32 70.4-70.4 70.4v0z" />
<glyph unicode="&#xe93f;" glyph-name="input-search" d="M547.2 147.2c-6.4 0-12.8-3.2-16-3.2-19.2-3.2-32-25.6-28.8-44.8 3.2-16 19.2-28.8 35.2-28.8 3.2 0 6.4 0 6.4 0 6.4 0 12.8 3.2 22.4 6.4 19.2 6.4 32 25.6 25.6 44.8-3.2 19.2-25.6 32-44.8 25.6v0zM1011.2 0l-217.6 217.6c44.8 54.4 80 118.4 96 188.8 41.6 185.6-35.2 377.6-195.2 480-156.8 102.4-364.8 92.8-512-19.2-150.4-115.2-214.4-310.4-160-492.8 54.4-179.2 224-310.4 412.8-316.8 0 0 0 0 0 0 19.2 0 35.2 16 38.4 35.2 0 19.2-16 38.4-35.2 38.4-156.8 6.4-297.6 115.2-345.6 262.4-48 150.4 6.4 316.8 131.2 409.6 121.6 92.8 297.6 99.2 428.8 16s198.4-249.6 163.2-400c-22.4-92.8-80-179.2-163.2-230.4-16-9.6-22.4-35.2-12.8-51.2s35.2-22.4 51.2-12.8c16 9.6 32 22.4 48 35.2l217.6-217.6c6.4-6.4 16-9.6 25.6-9.6s19.2 3.2 25.6 9.6c19.2 22.4 19.2 44.8 3.2 57.6v0z" />
<glyph unicode="&#xe940;" glyph-name="message" d="M928 204.8c0 3.2-131.2 182.4-131.2 316.8 0 185.6-83.2 281.6-179.2 316.8v16c0 57.6-48 105.6-105.6 105.6s-105.6-48-105.6-105.6v-19.2c-12.8-9.6-19.2-22.4-12.8-38.4 6.4-19.2 25.6-28.8 44.8-22.4s41.6 9.6 64 9.6h22.4c128 0 201.6-99.2 201.6-262.4 0-118.4 80-259.2 121.6-323.2-64-28.8-201.6-83.2-336-83.2s-272 54.4-336 83.2c41.6 64 121.6 204.8 121.6 323.2 0 67.2 12.8 124.8 38.4 169.6 9.6 16 3.2 38.4-12.8 48s-38.4 3.2-48-12.8c-32-54.4-48-124.8-48-204.8 0-134.4-131.2-313.6-131.2-316.8-6.4-9.6-9.6-19.2-6.4-28.8s9.6-19.2 16-22.4c6.4-3.2 118.4-64 256-92.8 22.4-73.6 80-121.6 147.2-121.6s124.8 48 147.2 121.6c137.6 28.8 249.6 89.6 256 92.8 9.6 3.2 16 12.8 19.2 22.4s3.2 19.2-3.2 28.8v0zM499.2 854.4c-6.4 0-16 0-22.4-3.2v3.2c0 19.2 16 35.2 35.2 35.2s35.2-16 35.2-35.2v0c-6.4 0-16 0-22.4 0h-25.6zM512 9.6c-25.6 0-48 16-64 38.4 22.4-3.2 41.6-3.2 64-3.2s41.6 0 64 3.2c-16-25.6-41.6-38.4-64-38.4v0z" />
<glyph unicode="&#xe941;" glyph-name="create-ent" d="M508.8 172.8c-12.8 0-137.6 108.8-137.6 124.8s102.4 307.2 102.4 307.2-57.6 73.6-67.2 86.4c-9.6 12.8-9.6 35.2 19.2 35.2h169.6c28.8 0 28.8-22.4 19.2-35.2s-67.2-86.4-67.2-86.4 102.4-291.2 102.4-307.2c0-16-128-124.8-140.8-124.8v0zM812.8 963.2h-608c-115.2 0-208-92.8-208-208v-608c0-115.2 92.8-208 208-208h608c115.2 0 208 92.8 208 208v608c0 115.2-92.8 208-208 208v0zM963.2 147.2c0-83.2-67.2-147.2-147.2-147.2h-608c-83.2 0-147.2 67.2-147.2 147.2v608c0 83.2 67.2 147.2 147.2 147.2h608c83.2 0 147.2-67.2 147.2-147.2v-608z" />
<glyph unicode="&#xe942;" glyph-name="schedule" d="M969.6-57.6h-918.4c-25.6 0-48 22.4-48 48v844.8c0 25.6 22.4 48 48 48h137.6c19.2 0 35.2-16 35.2-35.2s-16-35.2-35.2-35.2h-115.2v-803.2h873.6v803.2h-96c-19.2 0-35.2 16-35.2 35.2s16 35.2 35.2 35.2h118.4c25.6 0 48-22.4 48-48v-844.8c0-25.6-19.2-48-48-48v0zM963.2 480h-886.4c-19.2 0-35.2 16-35.2 35.2s16 35.2 35.2 35.2h886.4c19.2 0 35.2-16 35.2-35.2 0-22.4-16-35.2-35.2-35.2v0zM41.6 547.2h35.2v-67.2h-35.2v67.2zM278.4 710.4c-19.2 0-35.2 16-35.2 35.2v172.8c0 19.2 16 35.2 35.2 35.2s35.2-16 35.2-35.2v-172.8c0-19.2-16-35.2-35.2-35.2v0zM752 710.4c-19.2 0-35.2 16-35.2 35.2v172.8c0 19.2 16 35.2 35.2 35.2s35.2-16 35.2-35.2v-172.8c0-22.4-16-35.2-35.2-35.2v0zM649.6 809.6h-268.8c-19.2 0-35.2 16-35.2 35.2s16 35.2 35.2 35.2h268.8c19.2 0 35.2-16 35.2-35.2s-12.8-35.2-35.2-35.2v0zM166.4 131.2c0-38.4 32-67.2 67.2-67.2 38.4 0 67.2 32 67.2 67.2 0 38.4-32 67.2-67.2 67.2-38.4 0-67.2-28.8-67.2-67.2zM438.4 131.2c0-38.4 32-67.2 67.2-67.2 38.4 0 67.2 32 67.2 67.2 0 38.4-32 67.2-67.2 67.2-38.4 0-67.2-28.8-67.2-67.2zM166.4 342.4c0-38.4 32-67.2 67.2-67.2 38.4 0 67.2 32 67.2 67.2 0 38.4-32 67.2-67.2 67.2-38.4 0-67.2-28.8-67.2-67.2zM438.4 342.4c0-38.4 32-67.2 67.2-67.2 38.4 0 67.2 32 67.2 67.2 0 38.4-32 67.2-67.2 67.2-38.4 0-67.2-28.8-67.2-67.2zM710.4 342.4c0-38.4 32-67.2 67.2-67.2s67.2 32 67.2 67.2c0 38.4-32 67.2-67.2 67.2s-67.2-28.8-67.2-67.2zM755.2 57.6c-9.6 0-16 3.2-22.4 9.6l-64 64c-12.8 12.8-12.8 32 0 44.8s32 12.8 44.8 0l38.4-38.4 86.4 86.4c12.8 12.8 32 12.8 44.8 0s12.8-32 0-44.8l-108.8-108.8c0-9.6-9.6-12.8-19.2-12.8v0z" />
<glyph unicode="&#xe943;" glyph-name="live" d="M976 745.6c-28.8 28.8-67.2 44.8-108.8 44.8h-201.6l54.4 96c9.6 16 3.2 38.4-12.8 51.2-16 9.6-38.4 3.2-51.2-16l-76.8-131.2h-160l-76.8 131.2c-12.8 19.2-32 25.6-51.2 16-16-12.8-22.4-35.2-12.8-51.2l54.4-96h-188.8c-41.6 0-80-16-108.8-44.8s-44.8-67.2-44.8-108.8v-528c0-41.6 16-80 44.8-108.8s67.2-44.8 108.8-44.8h713.6c41.6 0 80 16 108.8 44.8s44.8 67.2 44.8 112v524.8c9.6 41.6-6.4 80-35.2 108.8v0zM960 105.6c0-48-38.4-86.4-86.4-86.4h-729.6c-48 0-86.4 38.4-86.4 86.4v537.6c0 48 38.4 86.4 86.4 86.4h729.6c48 0 86.4-38.4 86.4-86.4v-537.6zM742.4 416l-345.6 201.6c-12.8 6.4-25.6 6.4-38.4 0s-19.2-19.2-19.2-32v-400c0-12.8 6.4-25.6 19.2-32 6.4-3.2 12.8-6.4 19.2-6.4s12.8 0 19.2 6.4l345.6 201.6c12.8 6.4 19.2 19.2 19.2 32 0 9.6-6.4 22.4-19.2 28.8v0z" />
<glyph unicode="&#xe944;" glyph-name="join" d="M944 924.8h-486.4c-44.8 0-80-35.2-80-80v-163.2c0-16 12.8-25.6 25.6-25.6 16 0 25.6 12.8 25.6 25.6v163.2c0 16 12.8 25.6 25.6 25.6h406.4l-208-89.6c-38.4-16-67.2-60.8-67.2-99.2v-512h-134.4c-16 0-25.6 12.8-25.6 25.6v163.2c0 16-12.8 25.6-25.6 25.6-16 0-25.6-12.8-25.6-25.6v-163.2c0-44.8 35.2-80 80-80h134.4v-80c0-22.4 9.6-41.6 25.6-54.4 9.6-6.4 19.2-9.6 32-9.6 9.6 0 19.2 3.2 28.8 6.4l278.4 118.4c38.4 16 67.2 60.8 67.2 99.2v646.4c3.2 48-32 83.2-76.8 83.2v0zM969.6 198.4c0-19.2-16-41.6-32-51.2l-278.4-118.4c-6.4-3.2-9.6-3.2-9.6 0 0 0-3.2 3.2-3.2 9.6v646.4c0 19.2 16 41.6 32 51.2l288 124.8c3.2-3.2 3.2-6.4 3.2-12.8v-649.6zM451.2 540.8l-163.2 163.2c-9.6 9.6-28.8 9.6-38.4 0s-9.6-28.8 0-38.4l115.2-115.2h-339.2c-16 0-25.6-12.8-25.6-25.6 0-16 12.8-25.6 25.6-25.6h339.2l-115.2-115.2c-9.6-9.6-9.6-28.8 0-38.4 6.4-6.4 12.8-6.4 19.2-6.4s12.8 3.2 19.2 6.4l163.2 163.2c9.6 3.2 9.6 19.2 0 32v0 0z" />
<glyph unicode="&#xe945;" glyph-name="meeting-management" d="M944 924.8h-486.4c-44.8 0-80-35.2-80-80v-163.2c0-16 12.8-25.6 25.6-25.6 16 0 25.6 12.8 25.6 25.6v163.2c0 16 12.8 25.6 25.6 25.6h406.4l-208-89.6c-38.4-16-67.2-60.8-67.2-99.2v-512h-134.4c-16 0-25.6 12.8-25.6 25.6v163.2c0 16-12.8 25.6-25.6 25.6-16 0-25.6-12.8-25.6-25.6v-163.2c0-44.8 35.2-80 80-80h134.4v-80c0-22.4 9.6-41.6 25.6-54.4 9.6-6.4 19.2-9.6 32-9.6 9.6 0 19.2 3.2 28.8 6.4l278.4 118.4c38.4 16 67.2 60.8 67.2 99.2v646.4c3.2 48-32 83.2-76.8 83.2v0zM969.6 198.4c0-19.2-16-41.6-32-51.2l-278.4-118.4c-6.4-3.2-9.6-3.2-9.6 0 0 0-3.2 3.2-3.2 9.6v646.4c0 19.2 16 41.6 32 51.2l288 124.8c3.2-3.2 3.2-6.4 3.2-12.8v-649.6zM451.2 540.8l-163.2 163.2c-9.6 9.6-28.8 9.6-38.4 0s-9.6-28.8 0-38.4l115.2-115.2h-339.2c-16 0-25.6-12.8-25.6-25.6 0-16 12.8-25.6 25.6-25.6h339.2l-115.2-115.2c-9.6-9.6-9.6-28.8 0-38.4 6.4-6.4 12.8-6.4 19.2-6.4s12.8 3.2 19.2 6.4l163.2 163.2c9.6 3.2 9.6 19.2 0 32v0 0z" />
<glyph unicode="&#xe946;" glyph-name="logout" d="M998.4 473.6l-224 224c-12.8 12.8-38.4 12.8-51.2 0s-12.8-38.4 0-51.2l160-160h-499.2c-19.2 0-35.2-16-35.2-35.2s16-35.2 35.2-35.2h502.4l-160-160c-12.8-12.8-12.8-38.4 0-51.2s38.4-12.8 51.2 0l224 224c12.8 6.4 12.8 32-3.2 44.8v0zM675.2 134.4c-9.6 0-19.2-3.2-25.6-9.6s-9.6-16-9.6-25.6v-38.4c0-25.6-22.4-48-48-48h-454.4c-25.6 0-48 22.4-48 48v784c0 25.6 22.4 48 48 48h454.4c25.6 0 48-22.4 48-48v-38.4c0-19.2 16-35.2 35.2-35.2s35.2 16 35.2 35.2v38.4c0 67.2-54.4 121.6-121.6 121.6h-454.4c-67.2 0-121.6-54.4-121.6-121.6v-784c0-67.2 54.4-121.6 121.6-121.6h454.4c67.2 0 121.6 54.4 121.6 121.6v38.4c0 16-16 35.2-35.2 35.2v0z" />
<glyph unicode="&#xe947;" glyph-name="enter-setting" d="M1001.6 272h-25.6c-12.8 0-22.4 9.6-25.6 19.2l-12.8 35.2c-6.4 9.6-3.2 25.6 6.4 32l16 16c6.4 9.6 6.4 22.4 0 28.8l-28.8 28.8c-9.6 6.4-22.4 6.4-28.8 0l-16-16c-6.4-9.6-22.4-9.6-32-6.4l-35.2 12.8c-9.6 3.2-19.2 16-19.2 25.6v25.6c0 12.8-9.6 19.2-19.2 19.2h-41.6c-12.8 0-19.2-9.6-19.2-19.2v-25.6c0-12.8-9.6-22.4-19.2-25.6l-35.2-12.8c-9.6-6.4-25.6-3.2-32 6.4l-16 16c-6.4 6.4-22.4 6.4-28.8 0l-28.8-28.8c-6.4-6.4-6.4-22.4 0-28.8l16-16c9.6-9.6 9.6-22.4 6.4-32l-12.8-35.2c-3.2-9.6-16-19.2-25.6-19.2h-25.6c-12.8 0-19.2-9.6-19.2-19.2v-41.6c0-12.8 9.6-19.2 19.2-19.2h25.6c12.8 0 22.4-9.6 25.6-19.2l12.8-35.2c6.4-9.6 3.2-25.6-6.4-32l-16-16c-6.4-9.6-6.4-22.4 0-28.8l28.8-28.8c6.4-9.6 22.4-9.6 28.8 0l16 16c6.4 6.4 22.4 9.6 32 3.2l35.2-12.8c9.6-3.2 19.2-16 19.2-25.6v-25.6c0-12.8 9.6-19.2 19.2-19.2h41.6c12.8 0 19.2 9.6 19.2 19.2v25.6c0 12.8 9.6 22.4 19.2 25.6l35.2 12.8c9.6 6.4 25.6 3.2 32-3.2l16-16c9.6-9.6 22.4-9.6 28.8 0l28.8 28.8c6.4 6.4 6.4 22.4 0 28.8l-16 16c-6.4 6.4-9.6 22.4-6.4 32l12.8 35.2c3.2 9.6 16 19.2 25.6 19.2h25.6c12.8 0 19.2 9.6 19.2 19.2v41.6c3.2 12.8-6.4 19.2-19.2 19.2zM857.6 233.6c0-57.6-44.8-102.4-102.4-102.4s-102.4 44.8-102.4 102.4c0 57.6 44.8 102.4 102.4 102.4s102.4-48 102.4-102.4zM486.4 76.8h-307.2c-22.4 0-51.2 19.2-51.2 38.4v470.4l345.6 278.4c12.8 9.6 38.4 9.6 51.2 0l348.8-278.4v-80c22.4-9.6 41.6-19.2 60.8-32v64l19.2-16c12.8-9.6 32-6.4 41.6 6.4s9.6 32-3.2 41.6l-425.6 342.4c-16 12.8-38.4 22.4-64 22.4-22.4 0-44.8-6.4-64-22.4l-425.6-342.4c-12.8-9.6-16-28.8-6.4-41.6s28.8-16 41.6-6.4l19.2 16v-422.4c0-57.6 57.6-99.2 112-99.2h348.8c-16 19.2-32 41.6-41.6 60.8z" />
<glyph unicode="&#xe948;" glyph-name="change-admin" d="M489.6 326.4c-179.2 0-323.2 140.8-323.2 316.8s144 316.8 323.2 316.8 323.2-140.8 323.2-316.8-144-316.8-323.2-316.8v0zM489.6 892.8c-140.8 0-256-112-256-249.6s115.2-249.6 256-249.6 256 112 256 249.6c0 137.6-115.2 249.6-256 249.6v0zM640 368c-48-22.4-99.2-35.2-150.4-35.2s-102.4 12.8-147.2 35.2c-163.2-64-268.8-217.6-268.8-393.6v0c0-19.2 16-35.2 35.2-35.2 9.6 0 19.2 3.2 25.6 12.8 6.4 6.4 9.6 19.2 6.4 28.8 3.2 192 160 345.6 352 345.6 28.8 0 201.6 67.2 147.2 41.6zM518.4 262.4c6.4 3.2 9.6 6.4 12.8 9.6l12.8 12.8c25.6 25.6 16 44.8-19.2 44.8h-76.8c-35.2 0-41.6-19.2-19.2-44.8l12.8-12.8c6.4-6.4 12.8-9.6 19.2-12.8 0 0 0 0 0 0l-25.6-44.8c-6.4-9.6-6.4-19.2-6.4-28.8-3.2-12.8-3.2-25.6 0-38.4l38.4-128c12.8-41.6 32-41.6 44.8 0l41.6 131.2c3.2 12.8 3.2 28.8 0 41.6 0 9.6-3.2 19.2-6.4 25.6l-28.8 44.8c3.2-3.2 0-3.2 0 0v0zM947.2 48l-99.2-99.2c-9.6-9.6-28.8-9.6-38.4 0s-9.6 28.8 0 38.4l54.4 54.4h-217.6c-9.6 0-19.2 3.2-22.4 12.8s-3.2 19.2 0 25.6c3.2 9.6 12.8 12.8 22.4 12.8h281.6c6.4 0 12.8-3.2 19.2-6.4s6.4-12.8 6.4-19.2c0 0 0 0 0 0 0-6.4-3.2-12.8-6.4-19.2v0zM928 147.2h-281.6c-6.4 0-12.8 3.2-19.2 6.4-3.2 6.4-6.4 12.8-6.4 19.2 0 0 0 0 0 0 0 6.4 3.2 16 6.4 22.4l99.2 99.2c9.6 9.6 28.8 9.6 38.4 0s9.6-28.8 0-38.4l-54.4-54.4h217.6c9.6 0 16-6.4 22.4-12.8 3.2-6.4 3.2-19.2 0-25.6-3.2-9.6-12.8-16-22.4-16v0z" />
<glyph unicode="&#xe949;" glyph-name="personal-consumption" d="M796.8 422.4c-124.8 0-227.2-102.4-227.2-227.2s102.4-227.2 227.2-227.2 227.2 102.4 227.2 227.2-102.4 227.2-227.2 227.2v0zM796.8 16c-99.2 0-179.2 80-179.2 179.2s80 179.2 179.2 179.2c99.2 0 179.2-80 179.2-179.2s-80-179.2-179.2-179.2v0zM147.2 64c-44.8 0-80 35.2-80 80v646.4c0 44.8 35.2 80 80 80h105.6v60.8h-131.2c-67.2 0-121.6-54.4-121.6-121.6v-684.8c0-67.2 54.4-121.6 121.6-121.6h470.4c-16 19.2-32 38.4-41.6 60.8h-403.2zM905.6 806.4c0 67.2-54.4 121.6-121.6 121.6h-134.4v-60.8h108.8c44.8 0 80-35.2 80-80v-316.8c22.4-3.2 44.8-9.6 67.2-19.2v355.2zM355.2 928h195.2v-60.8h-195.2v60.8zM585.6 899.2c0-16-12.8-28.8-28.8-28.8h-204.8c-16 0-28.8 12.8-28.8 28.8s12.8 28.8 28.8 28.8h204.8c12.8 0 28.8-12.8 28.8-28.8v0zM873.6 227.2c0-9.6-6.4-16-16-16h-118.4c-9.6 0-16 6.4-16 16s6.4 16 16 16h118.4c9.6 0 16-6.4 16-16v0zM873.6 172.8c0-9.6-6.4-16-16-16h-118.4c-9.6 0-16 6.4-16 16s6.4 16 16 16h118.4c9.6 3.2 16-6.4 16-16v0zM796.8 89.6c-9.6 0-16 6.4-16 16v118.4c0 9.6 6.4 16 16 16s16-6.4 16-16v-118.4c0-9.6-6.4-16-16-16v0zM796.8 220.8c-6.4-6.4-19.2-3.2-25.6 3.2l-35.2 48c-6.4 6.4-3.2 19.2 3.2 25.6s19.2 3.2 25.6-3.2l35.2-48c6.4-9.6 3.2-22.4-3.2-25.6v0zM796.8 220.8c6.4-6.4 19.2-3.2 25.6 3.2l35.2 48c6.4 6.4 3.2 19.2-3.2 25.6s-19.2 3.2-25.6-3.2l-35.2-48c-6.4-9.6-6.4-22.4 3.2-25.6v0zM748.8 678.4c0-16-12.8-28.8-28.8-28.8h-534.4c-16 0-28.8 12.8-28.8 28.8s12.8 28.8 28.8 28.8h534.4c16 0 28.8-12.8 28.8-28.8v0zM720 492.8h-534.4c-16 0-28.8-12.8-28.8-28.8s12.8-28.8 28.8-28.8h464c28.8 19.2 64 32 99.2 38.4-3.2 9.6-16 19.2-28.8 19.2v0zM185.6 278.4c-16 0-28.8-12.8-28.8-28.8s12.8-28.8 28.8-28.8h332.8c3.2 19.2 6.4 41.6 12.8 60.8h-345.6z" />
<glyph unicode="&#xe94a;" glyph-name="personal-center" d="M518.4 371.2c172.8 0 313.6 131.2 313.6 294.4s-140.8 294.4-313.6 294.4c-172.8 0-313.6-131.2-313.6-294.4s140.8-294.4 313.6-294.4zM518.4 892.8c131.2 0 240-102.4 240-227.2s-108.8-227.2-240-227.2c-131.2 0-240 102.4-240 227.2-3.2 124.8 105.6 227.2 240 227.2zM899.2 227.2c-51.2 67.2-115.2 121.6-176 150.4-6.4 3.2-9.6 3.2-16 3.2-12.8 0-25.6-6.4-32-19.2-3.2-9.6-3.2-16-3.2-25.6 3.2-9.6 9.6-16 19.2-19.2 51.2-22.4 105.6-70.4 150.4-128 41.6-54.4 64-112 64-150.4 0-16-16-28.8-35.2-28.8h-720c-16 0-35.2 16-35.2 28.8 0 38.4 25.6 96 64 150.4 41.6 57.6 99.2 105.6 150.4 128 9.6 3.2 16 9.6 19.2 19.2s3.2 19.2-3.2 25.6c-6.4 12.8-19.2 19.2-32 19.2-6.4 0-9.6 0-16-3.2-60.8-28.8-124.8-83.2-176-150.4s-80-137.6-80-192c0-51.2 51.2-99.2 105.6-99.2h720c57.6 0 105.6 44.8 105.6 99.2 6.4 54.4-22.4 124.8-73.6 192z" />
<glyph unicode="&#xe94b;" glyph-name="customize" d="M998.4-44.8h-972.8c-12.8 0-25.6 12.8-25.6 25.6s12.8 25.6 25.6 25.6h972.8c12.8 0 25.6-12.8 25.6-25.6 0-16-9.6-25.6-25.6-25.6v0zM304 700.8h-96c-12.8 0-25.6 12.8-25.6 25.6s12.8 25.6 25.6 25.6h96c12.8 0 25.6-12.8 25.6-25.6 0-16-9.6-25.6-25.6-25.6v0zM512 700.8h-96c-12.8 0-25.6 12.8-25.6 25.6s12.8 25.6 25.6 25.6h96c12.8 0 25.6-12.8 25.6-25.6 3.2-16-9.6-25.6-25.6-25.6v0zM742.4 425.6v96c0 12.8 12.8 25.6 25.6 25.6s25.6-12.8 25.6-25.6v-96c0-12.8-12.8-25.6-25.6-25.6s-25.6 12.8-25.6 25.6v0zM742.4 166.4v96c0 12.8 12.8 25.6 25.6 25.6s25.6-12.8 25.6-25.6v-96c0-12.8-12.8-25.6-25.6-25.6s-25.6 9.6-25.6 25.6v0zM304 467.2h-96c-12.8 0-25.6 12.8-25.6 25.6s12.8 25.6 25.6 25.6h96c12.8 0 25.6-12.8 25.6-25.6s-9.6-25.6-25.6-25.6v0zM512 467.2h-96c-12.8 0-25.6 12.8-25.6 25.6s12.8 25.6 25.6 25.6h96c12.8 0 25.6-12.8 25.6-25.6 3.2-12.8-9.6-25.6-25.6-25.6v0zM304 236.8h-96c-12.8 0-25.6 12.8-25.6 25.6s12.8 25.6 25.6 25.6h96c12.8 0 25.6-12.8 25.6-25.6s-9.6-25.6-25.6-25.6v0zM512 236.8h-96c-12.8 0-25.6 12.8-25.6 25.6s12.8 25.6 25.6 25.6h96c12.8 0 25.6-12.8 25.6-25.6 3.2-16-9.6-25.6-25.6-25.6v0zM60.8-19.2v883.2c0 41.6 35.2 76.8 76.8 76.8h441.6c41.6 0 76.8-35.2 76.8-76.8v-867.2c0-16-12.8-25.6-25.6-25.6s-25.6 12.8-25.6 25.6v867.2c0 12.8-12.8 25.6-25.6 25.6h-441.6c-12.8 0-25.6-12.8-25.6-25.6v-883.2h-51.2zM636.8 700.8h240c41.6 0 76.8-35.2 76.8-76.8v-627.2c0-12.8-12.8-25.6-25.6-25.6s-25.6 12.8-25.6 25.6v627.2c0 12.8-12.8 25.6-25.6 25.6h-240z" />
<glyph unicode="&#xe94c;" glyph-name="operation-log" d="M896-64h-768c-70.4 0-128 57.6-128 128v672c0 70.4 57.6 128 128 128h60.8c3.2 54.4 44.8 96 99.2 96s96-41.6 99.2-96h249.6c3.2 54.4 44.8 96 99.2 96s96-41.6 99.2-96h60.8c70.4 0 128-57.6 128-128v-672c0-70.4-57.6-128-128-128v0zM960 736c0 35.2-28.8 64-64 64h-121.6v64c-3.2 19.2-19.2 35.2-38.4 35.2-22.4 0-38.4-16-38.4-35.2v0-64h-364.8v64c-3.2 19.2-19.2 35.2-38.4 35.2-22.4 0-38.4-16-38.4-35.2v0-64h-121.6c-35.2 0-64-28.8-64-64v-121.6h896v121.6zM960 544h-896v-480c0-35.2 28.8-64 64-64h768c35.2 0 64 28.8 64 64v480zM803.2 259.2c0 0 0 0 0 0v0h-598.4c-19.2 0-35.2 16-35.2 35.2s16 35.2 35.2 35.2v0h598.4c19.2 0 35.2-16 35.2-35.2 3.2-19.2-12.8-35.2-35.2-35.2v0zM803.2 390.4h-598.4c-19.2 0-35.2 16-35.2 35.2s16 35.2 35.2 35.2v0h598.4c19.2 0 35.2-16 35.2-35.2 3.2-19.2-12.8-35.2-35.2-35.2v0zM204.8 198.4h409.6c19.2 0 35.2-16 35.2-35.2s-16-35.2-35.2-35.2h-409.6c-19.2 0-35.2 16-35.2 35.2s16 35.2 35.2 35.2v0zM649.6 739.2h182.4c19.2 0 35.2-16 35.2-35.2s-16-35.2-35.2-35.2h-182.4c-19.2 0-35.2 16-35.2 35.2s16 35.2 35.2 35.2v0z" />
<glyph unicode="&#xe94d;" glyph-name="order-management" d="M832-64h-640c-70.4 0-128 57.6-128 128v640c0 70.4 57.6 128 128 128h96v64h86.4c28.8 38.4 80 64 137.6 64s108.8-25.6 137.6-64h86.4v-64h96c70.4 0 128-57.6 128-128v-640c0-70.4-57.6-128-128-128v0zM672 832h-70.4c0 35.2-38.4 64-89.6 64-48 0-89.6-28.8-89.6-64h-70.4v-128h320v128zM896 704c0 35.2-28.8 64-64 64h-96v-128h-448v128h-96c-35.2 0-64-28.8-64-64v-640c0-35.2 28.8-64 64-64h640c35.2 0 64 28.8 64 64v640zM736 128h-448c-19.2 0-32 12.8-32 32s12.8 32 32 32h448c19.2 0 32-12.8 32-32 0-16-12.8-32-32-32v0zM736 288h-448c-19.2 0-32 12.8-32 32s12.8 32 32 32h448c19.2 0 32-12.8 32-32 0-16-12.8-32-32-32v0zM736 448h-448c-19.2 0-32 12.8-32 32s12.8 32 32 32h448c19.2 0 32-12.8 32-32 0-16-12.8-32-32-32v0z" />
<glyph unicode="&#xe94e;" glyph-name="contacts-ent" d="M883.2-64h-691.2c-51.2 0-92.8 44.8-92.8 102.4v105.6h70.4v-105.6c0-19.2 12.8-35.2 22.4-35.2h691.2c9.6 0 22.4 12.8 22.4 35.2v819.2c0 19.2-12.8 35.2-22.4 35.2h-691.2c-9.6 0-22.4-12.8-22.4-35.2v-112h-70.4v112c0 57.6 41.6 102.4 92.8 102.4h691.2c51.2 0 92.8-44.8 92.8-102.4v-819.2c0-57.6-41.6-102.4-92.8-102.4v0zM240 588.8c0-19.2-16-35.2-35.2-35.2h-121.6c-19.2 0-35.2 16-35.2 35.2s16 35.2 35.2 35.2h121.6c19.2 0 35.2-16 35.2-35.2v0zM240 441.6c0-19.2-16-35.2-35.2-35.2h-121.6c-19.2 0-35.2 16-35.2 35.2s16 35.2 35.2 35.2h121.6c19.2 0 35.2-16 35.2-35.2v0zM240 294.4c0-19.2-16-35.2-35.2-35.2h-121.6c-19.2 0-35.2 16-35.2 35.2s16 35.2 35.2 35.2h121.6c19.2 0 35.2-16 35.2-35.2v0zM809.6 214.4v0c0 3.2 0 6.4 0 6.4-12.8 86.4-67.2 160-147.2 192 44.8 32 73.6 83.2 73.6 140.8 0 96-76.8 172.8-172.8 172.8s-172.8-76.8-172.8-172.8c0-57.6 28.8-112 73.6-140.8-76.8-32-134.4-105.6-144-188.8 0-3.2-3.2-6.4-3.2-9.6v-3.2c0-12.8 9.6-25.6 25.6-25.6 12.8 0 25.6 9.6 25.6 25.6v0 0c12.8 96 89.6 166.4 188.8 169.6 3.2 0 3.2 0 6.4 0s3.2 0 6.4 0c96-3.2 176-76.8 188.8-169.6v0 0c0-12.8 9.6-25.6 25.6-25.6 16 3.2 25.6 12.8 25.6 28.8v0 0zM572.8 435.2c-3.2 0-6.4 0-9.6 0s-6.4 0-9.6 0c-64 3.2-115.2 57.6-115.2 121.6 0 67.2 54.4 121.6 121.6 121.6s121.6-54.4 121.6-121.6c6.4-64-44.8-118.4-108.8-121.6v0zM99.2 745.6c0-19.2 16-35.2 35.2-35.2s35.2 16 35.2 35.2c0 19.2-16 35.2-35.2 35.2s-35.2-16-35.2-35.2zM99.2 147.2c0-19.2 16-35.2 35.2-35.2s35.2 16 35.2 35.2c0 19.2-16 35.2-35.2 35.2-19.2-3.2-35.2-19.2-35.2-35.2z" />
<glyph unicode="&#xe94f;" glyph-name="contacts-user" d="M883.2-64h-691.2c-51.2 0-92.8 44.8-92.8 102.4v105.6h70.4v-105.6c0-19.2 12.8-35.2 22.4-35.2h691.2c9.6 0 22.4 12.8 22.4 35.2v819.2c0 19.2-12.8 35.2-22.4 35.2h-691.2c-9.6 0-22.4-12.8-22.4-35.2v-112h-70.4v112c0 57.6 41.6 102.4 92.8 102.4h691.2c51.2 0 92.8-44.8 92.8-102.4v-819.2c0-57.6-41.6-102.4-92.8-102.4v0zM240 588.8c0-19.2-16-35.2-35.2-35.2h-121.6c-19.2 0-35.2 16-35.2 35.2s16 35.2 35.2 35.2h121.6c19.2 0 35.2-16 35.2-35.2v0zM240 441.6c0-19.2-16-35.2-35.2-35.2h-121.6c-19.2 0-35.2 16-35.2 35.2s16 35.2 35.2 35.2h121.6c19.2 0 35.2-16 35.2-35.2v0zM240 294.4c0-19.2-16-35.2-35.2-35.2h-121.6c-19.2 0-35.2 16-35.2 35.2s16 35.2 35.2 35.2h121.6c19.2 0 35.2-16 35.2-35.2v0zM809.6 214.4v0c0 3.2 0 6.4 0 6.4-12.8 86.4-67.2 160-147.2 192 44.8 32 73.6 83.2 73.6 140.8 0 96-76.8 172.8-172.8 172.8s-172.8-76.8-172.8-172.8c0-57.6 28.8-112 73.6-140.8-76.8-32-134.4-105.6-144-188.8 0-3.2-3.2-6.4-3.2-9.6v-3.2c0-12.8 9.6-25.6 25.6-25.6 12.8 0 25.6 9.6 25.6 25.6v0 0c12.8 96 89.6 166.4 188.8 169.6 3.2 0 3.2 0 6.4 0s3.2 0 6.4 0c96-3.2 176-76.8 188.8-169.6v0 0c0-12.8 9.6-25.6 25.6-25.6 16 3.2 25.6 12.8 25.6 28.8v0 0zM572.8 435.2c-3.2 0-6.4 0-9.6 0s-6.4 0-9.6 0c-64 3.2-115.2 57.6-115.2 121.6 0 67.2 54.4 121.6 121.6 121.6s121.6-54.4 121.6-121.6c6.4-64-44.8-118.4-108.8-121.6v0zM99.2 745.6c0-19.2 16-35.2 35.2-35.2s35.2 16 35.2 35.2c0 19.2-16 35.2-35.2 35.2s-35.2-16-35.2-35.2zM99.2 147.2c0-19.2 16-35.2 35.2-35.2s35.2 16 35.2 35.2c0 19.2-16 35.2-35.2 35.2-19.2-3.2-35.2-19.2-35.2-35.2z" />
<glyph unicode="&#xe950;" glyph-name="consumption-detail" d="M198.4 624h614.4c12.8 0 22.4 9.6 22.4 22.4v0c0 12.8-9.6 22.4-22.4 22.4h-614.4c-12.8 0-22.4-9.6-22.4-22.4 3.2-9.6 12.8-22.4 22.4-22.4v0zM198.4 480h614.4c12.8 0 22.4 9.6 22.4 22.4v0c0 12.8-9.6 22.4-22.4 22.4h-614.4c-12.8 0-22.4-9.6-22.4-22.4 3.2-9.6 12.8-22.4 22.4-22.4v0zM198.4 339.2h614.4c12.8 0 22.4 9.6 22.4 22.4v0c0 12.8-9.6 22.4-22.4 22.4h-614.4c-12.8 0-22.4-9.6-22.4-22.4 3.2-12.8 12.8-22.4 22.4-22.4v0zM198.4 195.2h614.4c12.8 0 22.4 9.6 22.4 22.4s-9.6 22.4-22.4 22.4h-614.4c-12.8 0-22.4-9.6-22.4-22.4s12.8-22.4 22.4-22.4v0zM918.4 960h-816c-38.4 0-70.4-32-70.4-73.6v-880c0-38.4 32-73.6 70.4-73.6h540.8c19.2 0 51.2 0 83.2 0 16 0 35.2 12.8 35.2 35.2 0 16-19.2 32-38.4 32-51.2 0-70.4 0-80 0h-515.2c-19.2 0-32 16-32 32v828.8c0 19.2 12.8 32 32 32h60.8c3.2 0 35.2-3.2 51.2-35.2 3.2-9.6 32-67.2 76.8-76.8h371.2c48 9.6 76.8 64 76.8 76.8 12.8 32 48 35.2 51.2 35.2v0h73.6c19.2 0 32-16 32-32v-825.6c0-19.2-12.8-32-32-32h-60.8c-9.6 0-28.8-9.6-28.8-32s19.2-35.2 28.8-35.2h89.6c38.4 0 70.4 32 70.4 73.6v880c0 38.4-28.8 70.4-70.4 70.4v0zM720 870.4v0-3.2c0 0-6.4-28.8-32-32h-358.4c-25.6 6.4-32 32-32 32v6.4c-3.2 9.6-9.6 16-12.8 22.4h451.2c-9.6-9.6-12.8-16-16-25.6v0z" />
<glyph unicode="&#xe951;" glyph-name="consumption-all" d="M60.8 902.4v-912c0-32 25.6-57.6 57.6-57.6h665.6c16 0 28.8 12.8 32 25.6 3.2 19.2-12.8 32-28.8 32h-608c-32 0-57.6 25.6-57.6 57.6v790.4c0 32 25.6 57.6 57.6 57.6h304v-611.2l150.4 150.4 150.4-150.4v614.4h64c32 0 57.6-25.6 57.6-57.6v-832c0-16 12.8-28.8 25.6-32 19.2-3.2 32 12.8 32 28.8v896c0 32-25.6 57.6-57.6 57.6h-790.4c-28.8 0-54.4-25.6-54.4-57.6zM723.2 432l-89.6 89.6-89.6-89.6v470.4h179.2v-470.4z" />
<glyph unicode="&#xe952;" glyph-name="room-management" d="M937.6 204.8h-211.2l60.8-140.8c3.2-12.8-6.4-25.6-22.4-28.8s-35.2 3.2-38.4 16l-60.8 144c0 3.2 0 6.4 0 9.6h-284.8c0-3.2 0-6.4 0-9.6l-60.8-137.6c-3.2-12.8-22.4-19.2-38.4-16s-25.6 16-22.4 28.8l57.6 137.6h-230.4c-48 0-86.4 38.4-86.4 83.2v486.4c0 48 38.4 83.2 86.4 83.2h851.2c48 0 86.4-38.4 86.4-83.2v-486.4c0-48-38.4-86.4-86.4-86.4v0 0zM972.8 761.6c0 25.6-19.2 44.8-44.8 44.8h-832c-25.6 0-44.8-19.2-44.8-44.8v-457.6c0-25.6 19.2-44.8 44.8-44.8h835.2c25.6 0 44.8 19.2 44.8 44.8v457.6h-3.2zM774.4 505.6c-6.4 0-9.6 3.2-12.8 9.6l-9.6 102.4c0 0 0-3.2 0-3.2l-227.2-224c0 0 0 0 0 0s0 0 0 0-3.2 0-6.4 0c0 0 0 0 0 0-3.2 0-3.2 0-6.4 3.2 0 0 0 0 0 0s0 0 0 3.2c0 0 0 0 0 0l-99.2 172.8-156.8-153.6c-3.2-3.2-9.6-3.2-16 0-3.2 3.2-3.2 3.2-3.2 6.4s0 6.4 3.2 6.4l166.4 163.2c0 0 3.2 0 3.2 0v0c3.2 0 3.2 0 6.4 0s3.2 0 3.2-3.2c0 0 0 0 0 0s0 0 0 0 0 0 3.2-3.2l99.2-169.6 214.4 214.4-99.2-6.4c-6.4 0-9.6 3.2-12.8 9.6 0 6.4 3.2 9.6 9.6 12.8l128 9.6c6.4 0 9.6-3.2 12.8-9.6l9.6-124.8c0-9.6-3.2-16-9.6-16v0zM755.2 630.4c0 0 0-3.2 3.2-3.2l-6.4 6.4c0-3.2 3.2-3.2 3.2-3.2v0 0z" />
<glyph unicode="&#xe953;" glyph-name="room" d="M937.6 204.8h-211.2l60.8-140.8c3.2-12.8-6.4-25.6-22.4-28.8s-35.2 3.2-38.4 16l-60.8 144c0 3.2 0 6.4 0 9.6h-284.8c0-3.2 0-6.4 0-9.6l-60.8-137.6c-3.2-12.8-22.4-19.2-38.4-16s-25.6 16-22.4 28.8l57.6 137.6h-230.4c-48 0-86.4 38.4-86.4 83.2v486.4c0 48 38.4 83.2 86.4 83.2h851.2c48 0 86.4-38.4 86.4-83.2v-486.4c0-48-38.4-86.4-86.4-86.4v0 0zM972.8 761.6c0 25.6-19.2 44.8-44.8 44.8h-832c-25.6 0-44.8-19.2-44.8-44.8v-457.6c0-25.6 19.2-44.8 44.8-44.8h835.2c25.6 0 44.8 19.2 44.8 44.8v457.6h-3.2zM774.4 505.6c-6.4 0-9.6 3.2-12.8 9.6l-9.6 102.4c0 0 0-3.2 0-3.2l-227.2-224c0 0 0 0 0 0s0 0 0 0-3.2 0-6.4 0c0 0 0 0 0 0-3.2 0-3.2 0-6.4 3.2 0 0 0 0 0 0s0 0 0 3.2c0 0 0 0 0 0l-99.2 172.8-156.8-153.6c-3.2-3.2-9.6-3.2-16 0-3.2 3.2-3.2 3.2-3.2 6.4s0 6.4 3.2 6.4l166.4 163.2c0 0 3.2 0 3.2 0v0c3.2 0 3.2 0 6.4 0s3.2 0 3.2-3.2c0 0 0 0 0 0s0 0 0 0 0 0 3.2-3.2l99.2-169.6 214.4 214.4-99.2-6.4c-6.4 0-9.6 3.2-12.8 9.6 0 6.4 3.2 9.6 9.6 12.8l128 9.6c6.4 0 9.6-3.2 12.8-9.6l9.6-124.8c0-9.6-3.2-16-9.6-16v0zM755.2 630.4c0 0 0-3.2 3.2-3.2l-6.4 6.4c0-3.2 3.2-3.2 3.2-3.2v0 0z" />
<glyph unicode="&#xe954;" glyph-name="history-management" d="M662.4-64c-176 0-320 140.8-320 310.4 0 172.8 144 310.4 320 310.4s320-140.8 320-310.4c3.2-169.6-144-310.4-320-310.4v0zM662.4 499.2c-144 0-262.4-112-262.4-249.6s118.4-249.6 262.4-249.6c144 0 262.4 112 262.4 249.6s-118.4 249.6-262.4 249.6v0zM771.2 217.6h-115.2c-28.8 0-32 0-32 28.8v140.8c0 28.8 3.2 51.2 32 51.2s32-22.4 32-51.2v-108.8h83.2c28.8 0 54.4 0 54.4-28.8-3.2-32-25.6-32-54.4-32v0zM329.6 377.6c-9.6-19.2-12.8-38.4-19.2-60.8h-41.6c-16 0-28.8 12.8-28.8 28.8s12.8 28.8 28.8 28.8h60.8zM240 748.8c0 16 12.8 28.8 28.8 28.8h323.2c16 0 28.8-12.8 28.8-28.8s-12.8-28.8-28.8-28.8h-323.2c-16 0-28.8 12.8-28.8 28.8v0zM412.8 518.4h-144c-16 0-28.8 12.8-28.8 28.8s12.8 28.8 28.8 28.8h144c16 0 28.8-12.8 28.8-28.8s-12.8-28.8-28.8-28.8v0zM784 848v0c0 32-22.4 54.4-54.4 54.4h-572.8c-32 0-54.4-22.4-54.4-54.4v-755.2l112 86.4 115.2-89.6 6.4 3.2c6.4-19.2 16-35.2 28.8-51.2l-32-25.6-115.2 83.2-172.8-124.8v870.4c0 60.8 51.2 112 115.2 112h572.8c64 0 115.2-51.2 115.2-112v-297.6c-19.2 9.6-38.4 19.2-60.8 28.8v272z" />
<glyph unicode="&#xe955;" glyph-name="history" d="M662.4-64c-176 0-320 140.8-320 310.4 0 172.8 144 310.4 320 310.4s320-140.8 320-310.4c3.2-169.6-144-310.4-320-310.4v0zM662.4 499.2c-144 0-262.4-112-262.4-249.6s118.4-249.6 262.4-249.6c144 0 262.4 112 262.4 249.6s-118.4 249.6-262.4 249.6v0zM771.2 217.6h-115.2c-28.8 0-32 0-32 28.8v140.8c0 28.8 3.2 51.2 32 51.2s32-22.4 32-51.2v-108.8h83.2c28.8 0 54.4 0 54.4-28.8-3.2-32-25.6-32-54.4-32v0zM329.6 377.6c-9.6-19.2-12.8-38.4-19.2-60.8h-41.6c-16 0-28.8 12.8-28.8 28.8s12.8 28.8 28.8 28.8h60.8zM240 748.8c0 16 12.8 28.8 28.8 28.8h323.2c16 0 28.8-12.8 28.8-28.8s-12.8-28.8-28.8-28.8h-323.2c-16 0-28.8 12.8-28.8 28.8v0zM412.8 518.4h-144c-16 0-28.8 12.8-28.8 28.8s12.8 28.8 28.8 28.8h144c16 0 28.8-12.8 28.8-28.8s-12.8-28.8-28.8-28.8v0zM784 848v0c0 32-22.4 54.4-54.4 54.4h-572.8c-32 0-54.4-22.4-54.4-54.4v-755.2l112 86.4 115.2-89.6 6.4 3.2c6.4-19.2 16-35.2 28.8-51.2l-32-25.6-115.2 83.2-172.8-124.8v870.4c0 60.8 51.2 112 115.2 112h572.8c64 0 115.2-51.2 115.2-112v-297.6c-19.2 9.6-38.4 19.2-60.8 28.8v272z" />
<glyph unicode="&#xe956;" glyph-name="book" d="M620.8 80h-64c0 0 0 3.2 0 6.4v176c0 35.2-28.8 73.6-89.6 73.6s-89.6-38.4-89.6-73.6v-172.8c0 0 0 0 0-3.2v-3.2h-211.2c-19.2 0-48 19.2-48 35.2v438.4l323.2 259.2c12.8 9.6 35.2 9.6 48 0l323.2-259.2v-105.6c6.4 0 12.8 0 19.2 0 12.8 0 22.4 0 35.2-3.2v64l19.2-12.8c12.8-9.6 28.8-6.4 38.4 6.4s6.4 28.8-3.2 38.4l-396.8 320c-16 12.8-38.4 19.2-57.6 19.2-22.4 0-41.6-6.4-57.6-19.2l-396.8-320c-12.8-9.6-12.8-25.6-6.4-38.4 9.6-12.8 25.6-12.8 38.4-6.4l19.2 16v-393.6c0-51.2 54.4-92.8 102.4-92.8h499.2c-19.2 12.8-35.2 32-44.8 51.2zM502.4 80h-70.4v179.2c0 12.8 19.2 16 35.2 16s35.2-3.2 35.2-16v-179.2zM867.2 41.6c0-16-12.8-28.8-28.8-28.8v0c-16 0-28.8 12.8-28.8 28.8v316.8c0 16 12.8 28.8 28.8 28.8v0c16 0 28.8-12.8 28.8-28.8v-316.8zM995.2 230.4c16 0 28.8-12.8 28.8-28.8v0c0-16-12.8-28.8-28.8-28.8h-316.8c-16 0-28.8 12.8-28.8 28.8v0c0 16 12.8 28.8 28.8 28.8h316.8z" />
<glyph unicode="&#xe957;" glyph-name="schedule-management" d="M620.8 80h-64c0 0 0 3.2 0 6.4v176c0 35.2-28.8 73.6-89.6 73.6s-89.6-38.4-89.6-73.6v-172.8c0 0 0 0 0-3.2v-3.2h-211.2c-19.2 0-48 19.2-48 35.2v438.4l323.2 259.2c12.8 9.6 35.2 9.6 48 0l323.2-259.2v-105.6c6.4 0 12.8 0 19.2 0 12.8 0 22.4 0 35.2-3.2v64l19.2-12.8c12.8-9.6 28.8-6.4 38.4 6.4s6.4 28.8-3.2 38.4l-396.8 320c-16 12.8-38.4 19.2-57.6 19.2-22.4 0-41.6-6.4-57.6-19.2l-396.8-320c-12.8-9.6-12.8-25.6-6.4-38.4 9.6-12.8 25.6-12.8 38.4-6.4l19.2 16v-393.6c0-51.2 54.4-92.8 102.4-92.8h499.2c-19.2 12.8-35.2 32-44.8 51.2zM502.4 80h-70.4v179.2c0 12.8 19.2 16 35.2 16s35.2-3.2 35.2-16v-179.2zM867.2 41.6c0-16-12.8-28.8-28.8-28.8v0c-16 0-28.8 12.8-28.8 28.8v316.8c0 16 12.8 28.8 28.8 28.8v0c16 0 28.8-12.8 28.8-28.8v-316.8zM995.2 230.4c16 0 28.8-12.8 28.8-28.8v0c0-16-12.8-28.8-28.8-28.8h-316.8c-16 0-28.8 12.8-28.8 28.8v0c0 16 12.8 28.8 28.8 28.8h316.8z" />
<glyph unicode="&#xe958;" glyph-name="conference-management" d="M438.4 646.4c-83.2 0-150.4 67.2-150.4 150.4v16h-70.4v-16c0-121.6 99.2-217.6 220.8-217.6 6.4 0 12.8 0 19.2 0h16v70.4l-19.2-3.2c-6.4 3.2-9.6 0-16 0v0zM473.6 352h-16c-6.4 0-12.8 0-22.4 0-121.6 0-217.6-99.2-217.6-217.6v-16h70.4v16c0 83.2 67.2 147.2 150.4 147.2 6.4 0 12.8 0 16 0l19.2-3.2v73.6zM992 870.4c0 6.4 0 12.8 0 19.2v70.4h-960v-70.4c0-6.4 0-12.8 0-19.2 0-185.6 112-355.2 281.6-432-169.6-76.8-281.6-246.4-281.6-432v-70.4h960v60.8c0 3.2 0 6.4 0 12.8 0 185.6-112 355.2-281.6 432 169.6 73.6 281.6 243.2 281.6 428.8v0zM601.6 473.6c-25.6 6.4-67.2 6.4-67.2 6.4v-86.4h16c32 3.2 60.8 6.4 86.4 16 150.4-48 284.8-214.4 284.8-406.4v-3.2h-822.4v3.2c0 188.8 134.4 355.2 323.2 396.8 16-3.2 32-6.4 51.2-6.4h16v86.4h-16c-16 0-35.2-3.2-51.2-6.4-185.6 41.6-323.2 208-323.2 396.8 0 6.4 0 12.8 0 19.2h819.2c0-6.4 0-12.8 0-19.2 3.2-188.8-131.2-355.2-316.8-396.8v0z" />
</font>
</defs>
</svg>
